<?xml version="1.0" encoding="utf-8"?>
<!-- Generator: Adobe Illustrator 24.1.3, SVG Export Plug-In . SVG Version: 6.00 Build 0)  -->
<svg version="1.1" id="Layer_1" xmlns="http://www.w3.org/2000/svg" xmlns:xlink="http://www.w3.org/1999/xlink" x="0px" y="0px"
	 viewBox="0 0 1283 1404" style="enable-background:new 0 0 1283 1404;" xml:space="preserve">
<style type="text/css">
	.st0{fill:#085DB2;}
	.st1{fill:#1F6CB9;}
	.st2{opacity:0.2;}
	.st3{fill:#E0EBF6;}
	.st4{fill:#3B7FC2;}
	.st5{fill:#9CBEE0;}
	.st6{fill:#DBECFE;}
	.st7{fill:#3297F5;}
	.st8{fill:#439FF6;}
	.st9{fill:#CAE4FC;}
	.st10{fill:#6EB5F8;}
	.st11{fill:#4BA3F6;}
	.st12{fill:#67B2F8;}
	.st13{fill:#E3F0FE;}
	.st14{fill:#61AFF7;}
	.st15{fill:#3A9BF5;}
	.st16{fill:#AFD6FB;}
	.st17{opacity:0.15;}
	.st18{fill:#6DB2F8;}
	.st19{fill:#17E19B;}
	.st20{fill:#00DE91;}
	.st21{fill:#C5E0FC;}
	.st22{fill:#38E5A9;}
	.st23{fill:#3BE5AB;}
	.st24{fill:#45E7AF;}
	.st25{fill:#9CF2D4;}
	.st26{fill:#00A76D;}
	.st27{fill:#FFD840;}
	.st28{fill:#FFE06A;}
	.st29{fill:#FFE272;}
	.st30{fill:#FFF3C4;}
	.st31{fill:#FFE16C;}
	.st32{fill:#FFD948;}
	.st33{fill:#FFF0B5;}
	.st34{fill:#D59B53;}
	.st35{fill:#CE9048;}
	.st36{opacity:0.3;fill:#CE9048;}
	.st37{fill:#0058B0;}
	.st38{fill:#004386;}
	.st39{fill:#E2AD5D;}
	.st40{fill:#DAA25B;}
	.st41{fill:#186ACB;}
	.st42{opacity:0.2;fill:#0058B0;}
	.st43{opacity:0.3;fill:#96A7B9;}
	.st44{opacity:0.2;fill:#00DE91;}
	.st45{fill:#80BCF9;}
	.st46{opacity:0.1;fill:#6DB2F8;}
	.st47{opacity:0.2;fill:url(#SVGID_1_);}
	.st48{fill:#85BFF9;}
	.st49{fill:#B0D5FB;}
	.st50{fill:#E0EFFE;}
	.st51{fill:#C3DFFC;}
	.st52{fill:#A1CDFA;}
	.st53{fill:#035AB1;}
	.st54{fill:#DEDEDE;}
	.st55{fill:url(#SVGID_2_);}
	.st56{fill:#D2A562;}
	.st57{fill:#CC9958;}
	.st58{fill:#D4B165;}
	.st59{opacity:0.2;fill:#3297F5;}
	.st60{fill:#3C9CF6;}
	.st61{fill:#3F3618;}
	.st62{fill:#C0DDFC;}
	.st63{fill:#93C5FA;}
	.st64{fill:#D6AD72;}
	.st65{fill:#CAE3FC;}
	.st66{fill:#B5D7FB;}
	.st67{opacity:0.3;fill:#ADD3FB;}
	.st68{opacity:0.54;fill:#B78D51;}
	.st69{fill:#D4E8FD;}
	.st70{fill:#BCDBFC;}
	.st71{fill:#DEEEFE;}
	.st72{fill:#E5F1FE;}
	.st73{fill:#F5B73C;}
	.st74{opacity:0.2;fill:#B18A40;}
	.st75{fill:none;}
	.st76{fill:#CCE4FC;}
	.st77{opacity:0.3;fill:#0058B0;}
	.st78{opacity:0.4;fill:#3297F5;}
	.st79{fill:#2A8AD1;}
	.st80{fill:#EEC07B;}
	.st81{fill:#E2AE6D;}
	.st82{fill:#F5C684;}
	.st83{fill:#49A2F6;}
	.st84{fill:none;stroke:#FFE06F;stroke-width:4.4818;stroke-miterlimit:10;}
	.st85{fill:none;stroke:#FFE06F;stroke-width:4.4818;stroke-linecap:round;stroke-miterlimit:10;}
	.st86{opacity:0.1;fill:#3297F5;}
	.st87{fill:#FFFFFF;}
	.st88{fill:#F7F9FA;}
	.st89{fill:#EDF1F2;}
	.st90{fill:#005491;}
	.st91{fill:#1CB07D;}
	.st92{fill:#66CAA7;}
	.st93{fill:#08A971;}
	.st94{fill:#7DBBF9;}
	.st95{fill:#89C1F9;}
	.st96{fill:#48A2F6;}
	.st97{clip-path:url(#SVGID_4_);fill:url(#SVGID_5_);}
	.st98{fill:#D5DBE3;}
	.st99{fill:#96A7B9;}
	.st100{fill:#CBD3DC;}
	.st101{fill:#D3DBE2;}
	.st102{fill:#CFD7DF;}
	.st103{fill:#E9F3FE;}
	.st104{fill:#FE4C64;}
	.st105{clip-path:url(#SVGID_7_);fill:url(#SVGID_8_);}
	.st106{fill:#D7EAFD;}
	.st107{fill:#B8D9FB;}
	.st108{clip-path:url(#SVGID_10_);}
	.st109{opacity:0.1;fill:#0058B0;}
	.st110{fill:#CEE6FD;}
	.st111{fill:#C2E0FC;}
	.st112{opacity:0.27;fill:#CEE6FD;}
	.st113{opacity:0.21;fill:#A9D3FB;}
	.st114{fill:#F9D96A;}
	.st115{fill:#59BAE2;}
	.st116{fill:#EC615B;}
	.st117{fill:#3B8ABB;}
	.st118{fill:#D05141;}
	.st119{fill:#1466B6;}
	.st120{fill:#317BD0;}
	.st121{fill:#3078BF;}
	.st122{fill:#2B75BD;}
	.st123{fill:#3A80D2;}
	.st124{fill:#007049;}
	.st125{fill:#003E9B;}
	.st126{fill:#657A93;}
	.st127{opacity:0.2;fill:#00A76D;}
	.st128{fill:#BEA96B;}
	.st129{opacity:0.3;fill:#BEA96B;}
	.st130{opacity:0.4;fill:#93C5FA;}
	.st131{opacity:0.2;fill:#BEA96B;}
	.st132{opacity:0.2;fill:#93C5FA;}
	.st133{fill:#AFD4FB;}
	.st134{fill:#A5CFFA;}
	.st135{fill:#413612;}
	.st136{opacity:0.3;fill:#413612;}
	.st137{fill:#C4CDD7;}
	.st138{fill:#D6DDE3;}
	.st139{fill:#DBE1E7;}
	.st140{fill:#8CC2F9;}
	.st141{fill:#006795;}
	.st142{fill:#23507B;}
	.st143{fill:#66EBBD;}
	.st144{fill:#536171;}
	.st145{fill:#74859B;}
	.st146{fill:#F7C769;}
	.st147{fill:#3E9DF6;}
	.st148{fill:#1A499E;}
	.st149{opacity:0.1;fill:#1A499E;}
	.st150{fill:#B18A40;}
	.st151{fill:#F5B840;}
	.st152{opacity:0.1;fill:#F5B73C;}
	.st153{opacity:0.2;fill:#FFD840;}
	.st154{fill:#F6C25B;}
	.st155{fill:#FFE8A0;}
	.st156{fill:#F6BF53;}
	.st157{fill:#FFDD5B;}
	.st158{fill:#F6C055;}
	.st159{fill:#F7C96D;}
	.st160{fill:#9AC9FA;}
	.st161{opacity:0.2;fill:#8DC3F9;}
	.st162{fill:#55A9F7;}
	.st163{fill:#A4CEFA;}
	.st164{fill:none;stroke:#FFE272;stroke-width:4.6046;stroke-miterlimit:10;}
	.st165{fill:#C5A872;}
	.st166{fill:#C0A064;}
	.st167{fill:#CEB587;}
	.st168{opacity:0.2;fill:#3F3618;}
	.st169{fill:none;stroke:#FFE272;stroke-width:4.6046;stroke-linecap:round;stroke-miterlimit:10;}
	.st170{opacity:0.1;fill:#186ACB;}
	.st171{opacity:0.68;fill:#24E2A1;}
	.st172{fill:#33E4A7;}
	.st173{fill:#0DDF97;}
	.st174{fill:#42E6AE;}
	.st175{fill:#36E5A8;}
	.st176{clip-path:url(#SVGID_12_);}
	.st177{fill:#B99653;}
	.st178{fill:#FFE174;}
	.st179{opacity:0.3;fill:#3297F5;}
	.st180{opacity:0.29;fill:#B18A40;}
	.st181{opacity:0.3;fill:#FFE174;}
	.st182{fill:#F8D8B2;}
	.st183{fill:#C3C4CA;}
	.st184{fill:#FFE78C;}
	.st185{fill:#84C1F9;}
	.st186{fill:#FFECB0;}
	.st187{fill:#FFEDB6;}
	.st188{fill:#FFF6D5;}
	.st189{fill:#4F300E;}
	.st190{fill:#422509;}
	.st191{fill:#E2EFFE;}
	.st192{fill:#BEDCFC;}
	.st193{opacity:0.13;fill:#B18A40;}
	.st194{fill:#0398FD;}
	.st195{fill:#19A1FD;}
	.st196{fill:#54B9FD;}
	.st197{fill:#0069D2;}
	.st198{fill:url(#SVGID_13_);}
	.st199{fill:#17A0FD;}
	.st200{opacity:0.3;fill:#17A0FD;}
	.st201{fill:#36ADFD;}
	.st202{fill:#52B8FD;}
	.st203{fill:#089AFD;}
	.st204{fill:#45B3FD;}
	.st205{opacity:5.000000e-02;fill:#0092FF;}
	.st206{opacity:0.85;fill:#87CBFF;enable-background:new    ;}
	.st207{opacity:0.85;fill:#98D3FF;enable-background:new    ;}
	.st208{opacity:0.85;fill:#00E870;enable-background:new    ;}
	.st209{clip-path:url(#SVGID_15_);}
	.st210{fill:#FFCF00;}
	.st211{clip-path:url(#SVGID_17_);}
	.st212{fill:#00B1EF;}
	.st213{clip-path:url(#SVGID_19_);}
	.st214{fill:#FF005B;}
	.st215{clip-path:url(#SVGID_21_);}
	.st216{fill:#0086CF;}
	.st217{clip-path:url(#SVGID_23_);}
	.st218{fill:#FF0055;}
	.st219{fill:#0097FD;}
	.st220{fill:#7CC4FE;}
	.st221{fill:#57B3FE;}
	.st222{clip-path:url(#SVGID_25_);}
	.st223{clip-path:url(#SVGID_27_);}
	.st224{clip-path:url(#SVGID_29_);}
	.st225{clip-path:url(#SVGID_31_);}
	.st226{clip-path:url(#SVGID_33_);}
	.st227{fill:#1CE697;}
	.st228{fill:#66EEB9;}
	.st229{fill:#0058B6;}
	.st230{fill:#FFD700;}
	.st231{fill:#FFB500;}
	.st232{fill:#FFE057;}
	.st233{fill:#8CC5EF;}
	.st234{fill:#AFA79F;}
	.st235{opacity:0.26;fill:#FFD700;}
	.st236{fill:#30ABFD;}
	.st237{fill:#2BA9FD;}
	.st238{fill:#149FFD;}
	.st239{fill:#CCF9E8;}
	.st240{fill:#00E38A;}
	.st241{fill:#C1DEFC;}
	.st242{fill:#ECF5FE;}
	.st243{fill:#F3F9FF;}
	.st244{fill:none;stroke:#93C5FA;stroke-width:2.856;stroke-miterlimit:10;}
	.st245{fill:#F6D472;}
	.st246{fill:#6AB1DA;}
	.st247{fill:#DC6158;}
	.st248{fill:#3680AE;}
	.st249{fill:#BB5041;}
	.st250{fill:#FFF7DC;}
	.st251{fill:#FFEFBE;}
	.st252{fill:#45A0F6;}
	.st253{fill:#4FA6F6;}
	.st254{fill:#47A1F6;}
	.st255{opacity:0.1;}
	.st256{fill:#A8D1FB;}
	.st257{opacity:0.1;fill:#93C5FA;}
	.st258{fill:#2973BD;}
	.st259{fill:#CBE3FC;}
	.st260{fill:none;stroke:#085DB2;stroke-width:1.2298;stroke-miterlimit:10;}
	.st261{fill:#249DEC;}
	.st262{fill:#FDCF3F;}
	.st263{fill:#FFE06F;}
	.st264{fill:#00D58D;}
	.st265{fill:#FFD75B;}
	.st266{fill:url(#SVGID_34_);}
	.st267{fill:#FFE15F;}
	.st268{fill:#006897;}
	.st269{fill:#19E19C;}
	.st270{fill:#2BE3A4;}
	.st271{fill:#F7BF4A;}
	.st272{fill:#FFDD51;}
	.st273{fill:#FFE176;}
	.st274{fill:#1C7F5D;}
	.st275{fill:#005437;}
	.st276{fill:#197E5B;}
	.st277{fill:#FFD443;}
	.st278{fill:#03B4E3;}
	.st279{fill:#FF484A;}
	.st280{fill:#0080B8;}
	.st281{fill:#DB3930;}
	.st282{fill:#A1CFFA;}
	.st283{clip-path:url(#SVGID_36_);}
	.st284{fill:#EBF5FE;}
	.st285{opacity:5.000000e-02;fill:#3297F5;}
	.st286{fill:#00C2F3;}
	.st287{fill:#FF0036;}
	.st288{fill:#008CCE;}
	.st289{fill:#FF0000;}
	.st290{opacity:0.1;fill:#B18A40;}
	.st291{fill:#B38E46;}
	.st292{fill:#B7934F;}
	.st293{fill:#46321F;}
	.st294{fill:#554129;}
	.st295{fill:#4E3A24;}
	.st296{fill:#E5F2FE;}
	.st297{fill:#3297F5;stroke:#00DE91;stroke-width:0.6184;stroke-miterlimit:10;}
	.st298{opacity:0.5;fill:#CCF8E9;}
	.st299{fill:#645134;}
	.st300{fill:#1351AA;}
	.st301{fill:#CCCCCC;}
	.st302{fill:#AFAEAF;}
	.st303{fill:none;stroke:#3297F5;stroke-width:30.1075;stroke-linecap:round;stroke-linejoin:round;stroke-miterlimit:10;}
	.st304{fill:none;stroke:#6DB2F8;stroke-width:28.4443;stroke-linecap:round;stroke-linejoin:round;stroke-miterlimit:10;}
	.st305{fill:none;stroke:#CCF8E9;stroke-width:30.1075;stroke-linecap:round;stroke-linejoin:round;stroke-miterlimit:10;}
	.st306{fill:#8694A8;}
	.st307{fill:#404953;}
	.st308{fill:#F2D8C0;}
	.st309{fill:#B1B3B4;}
	.st310{fill:#87888A;}
	.st311{opacity:0.2;fill:#6DB2F8;}
	.st312{fill:url(#SVGID_39_);}
	.st313{fill:url(#SVGID_40_);}
	.st314{fill:#C0CAD5;}
	.st315{fill:#9E7744;}
	.st316{opacity:0.63;fill:#ABD4FB;}
	.st317{fill:#A3D0FB;}
	.st318{fill:#82C0F9;}
	.st319{fill:#53A8F7;}
	.st320{fill:#916B3D;}
	.st321{fill:#044CA3;}
	.st322{fill:#473A22;}
	.st323{fill:#3A2D1A;}
	.st324{fill:none;stroke:#FFE272;stroke-width:2.5889;stroke-miterlimit:10;}
	.st325{fill:#634F17;}
	.st326{opacity:0.2;fill:#634F17;}
	.st327{fill:none;stroke:#FFE272;stroke-width:2.5889;stroke-linecap:round;stroke-miterlimit:10;}
	.st328{fill:#0F62B5;}
	.st329{fill:#04427F;}
	.st330{fill:#72B7F8;}
	.st331{fill:#5BACF7;}
	.st332{fill:#59ABF7;}
	.st333{fill:#D8C08B;}
	.st334{fill:#907032;}
	.st335{fill:#FFB200;}
	.st336{opacity:0.85;}
	.st337{fill:#337CD1;}
	.st338{fill:#CCB079;}
	.st339{fill:#F9C932;}
	.st340{fill:#FFE274;}
	.st341{fill:#14AE78;}
	.st342{fill:#30B789;}
	.st343{fill:#2BB686;}
	.st344{fill:#40BD91;}
	.st345{opacity:0.18;fill:#2671BC;}
	.st346{fill:#83BEF9;}
	.st347{fill:#FFF9E0;}
	.st348{opacity:0.18;fill:#0058B0;}
	.st349{fill:#CDD5DE;}
	.st350{fill:#FDFEFE;}
	.st351{opacity:0.2;fill:#EDF1F2;}
	.st352{fill:#D0D8E0;}
	.st353{fill:#F8D360;}
	.st354{fill:#4FB1DD;}
	.st355{fill:#EB5752;}
	.st356{fill:#357FB2;}
	.st357{fill:#C9473A;}
	.st358{fill:url(#SVGID_41_);}
	.st359{fill:#DEE4E9;}
	.st360{fill:#E8ECF0;}
	.st361{fill:#FFF1C4;}
	.st362{fill:#EBEEF1;}
	.st363{opacity:0.69;fill:#EDF0F3;}
	.st364{opacity:0.54;}
	.st365{fill:#DCE2E7;}
	.st366{fill:#D3DAE2;}
	.st367{opacity:0.3;fill:#CBD3DC;}
	.st368{fill:#BEC9D3;}
	.st369{fill:#D2D9E1;}
	.st370{opacity:0.2;fill:#96A7B9;}
	.st371{clip-path:url(#SVGID_43_);}
	.st372{fill:#1A499C;}
	.st373{opacity:0.4;fill:#0058B6;}
	.st374{fill:#0F9DFD;}
	.st375{fill:#0A9BFD;}
	.st376{opacity:0.2;fill:#0097FD;}
	.st377{fill:#DDCCAB;}
	.st378{fill:#D5C098;}
	.st379{fill:#F9CB0B;}
	.st380{fill:#CFB689;}
	.st381{opacity:0.4;fill:#FFD840;}
	.st382{fill:#D7C39E;}
	.st383{opacity:0.2;fill:#0058B6;}
	.st384{fill:#DCAB68;}
	.st385{opacity:0.54;fill:#BD8B45;}
	.st386{fill:#69B3F8;}
	.st387{fill:#B9C4D0;}
	.st388{fill:#A7B5C4;}
	.st389{fill:#4DA4F6;}
	.st390{fill:#331D06;}
	.st391{opacity:0.3;fill:#331D06;}
	.st392{fill:#966938;}
	.st393{fill:#895E33;}
	.st394{fill:#9B6C3D;}
	.st395{opacity:0.28;fill:#3297F5;}
	.st396{fill:none;stroke:#186ACB;stroke-width:1.8534;stroke-miterlimit:10;}
	.st397{fill:none;stroke:#186ACB;stroke-width:1.8534;stroke-linecap:round;stroke-miterlimit:10;}
	.st398{fill:#1264B5;}
	.st399{clip-path:url(#SVGID_45_);fill:#00DE91;}
	.st400{opacity:0.4;clip-path:url(#SVGID_45_);fill:#00A76D;}
	.st401{opacity:0.2;clip-path:url(#SVGID_45_);fill:#00A76D;}
	.st402{clip-path:url(#SVGID_45_);fill:#19E19C;}
	.st403{opacity:0.3;clip-path:url(#SVGID_45_);fill:#00A76D;}
	.st404{clip-path:url(#SVGID_45_);fill:#2EE4A5;}
	.st405{opacity:0.3;clip-path:url(#SVGID_45_);fill:#30B789;}
	.st406{fill:#ADA69F;}
	.st407{opacity:0.2;fill:#DCEDFD;}
	.st408{fill:#F8D774;}
	.st409{fill:#5DB0E0;}
	.st410{fill:#DB666B;}
	.st411{fill:#4A89BF;}
	.st412{fill:#C45161;}
	.st413{fill:#2FB788;}
	.st414{fill:#0064B9;}
	.st415{opacity:0.2;fill:#0064B9;}
	.st416{fill:#C6A06D;}
	.st417{opacity:0.3;fill:#C6A06D;}
	.st418{fill:#D1AF7C;}
	.st419{fill:#5CEAB9;}
	.st420{fill:#FFE626;}
	.st421{fill:#296690;}
	.st422{fill:#2E5078;}
	.st423{opacity:0.5;fill:#DCE2E7;}
	.st424{fill:#F5B942;}
	.st425{fill:#96724B;}
	.st426{fill:#7C5937;}
	.st427{fill:#8C6A48;}
	.st428{fill:#FFEA9A;}
	.st429{fill:#FFDF64;}
	.st430{fill:#FFE47D;}
	.st431{fill:#FFE78A;}
	.st432{fill:#FFEDA7;}
	.st433{opacity:0.1;fill:#3F3618;}
	.st434{opacity:0.3;clip-path:url(#SVGID_47_);}
	.st435{fill:#FFE992;}
	.st436{fill:#FFE47B;}
	.st437{opacity:0.3;clip-path:url(#SVGID_49_);}
	.st438{fill:#26B483;}
	.st439{fill:#33B88A;}
	.st440{fill:#8E693D;}
	.st441{fill:#7F5D38;}
	.st442{fill:#97BCE7;}
	.st443{fill:#95BBE7;}
	.st444{fill:#BFDFFC;}
	.st445{opacity:0.2;fill:#B3D9FB;}
	.st446{fill:#CCE5FD;}
	.st447{fill:#D8EBFD;}
	.st448{fill:#352A0D;}
	.st449{opacity:0.2;fill:#352A0D;}
	.st450{fill:#064477;}
	.st451{fill:#4E97EE;}
	.st452{opacity:0.3;fill:#4E97EE;}
	.st453{fill:#034A84;}
	.st454{fill:#C69463;}
	.st455{fill:#B7895C;}
	.st456{fill:#CC9E6A;}
	.st457{fill:#D8A979;}
	.st458{opacity:0.1;fill:#FFFFFF;}
	.st459{fill:none;stroke:#4E97EE;stroke-width:5.5536;stroke-miterlimit:10;}
	.st460{fill:#0959AA;}
	.st461{opacity:0.2;fill:#0959AA;}
	.st462{fill:#7C350D;}
	.st463{fill:#702E0D;}
	.st464{fill:#7F3611;}
	.st465{fill:#6AA8F1;}
	.st466{fill:#98C3F5;}
	.st467{fill:#296FB5;}
	.st468{opacity:0.1;fill:#226AB2;}
	.st469{fill:#1561AE;}
	.st470{fill:#8ABAF4;}
	.st471{fill:#60A1F0;}
	.st472{fill:#306BC4;}
	.st473{fill:#FFE080;}
	.st474{fill:#7CB2F2;}
	.st475{fill:#DEECFC;}
	.st476{fill:#14D997;}
	.st477{fill:#D0F7EA;}
	.st478{fill:#A1F0D5;}
	.st479{fill:#72E8C1;}
	.st480{fill:#E4B966;}
	.st481{fill:#F9D873;}
	.st482{fill:#65A5F0;}
	.st483{fill:#70ABF1;}
	.st484{opacity:0.32;clip-path:url(#SVGID_55_);fill:#97C2F5;}
	.st485{fill:#4378C9;}
	.st486{opacity:0.2;fill:#0FA371;}
	.st487{fill:#3ADFA8;}
	.st488{fill:#1DDB9B;}
	.st489{clip-path:url(#SVGID_57_);fill:#CBF7E8;}
	.st490{fill:#95C1F4;}
	.st491{opacity:0.21;fill:#4E97EE;}
	.st492{opacity:0.21;clip-path:url(#SVGID_59_);fill:#4E97EE;}
	.st493{fill:#ECB855;}
	.st494{fill:#FFD85F;}
	.st495{fill:#0FA371;}
	.st496{opacity:0.26;fill:#0FA371;}
	.st497{opacity:0.29;fill:#0FA371;}
	.st498{opacity:0.3;fill:#0FA371;}
	.st499{fill:#27DC9F;}
	.st500{fill:#53E3B3;}
	.st501{fill:#33DEA5;}
	.st502{fill:url(#SVGID_60_);}
	.st503{fill:#D5E6FB;}
	.st504{opacity:0.4;fill:#D5E6FB;}
	.st505{fill:#8FBDF4;}
	.st506{fill:#DDEBFC;}
	.st507{opacity:0.28;fill:#4E97EE;}
	.st508{opacity:0.28;fill:#A5CAF6;}
	.st509{fill:none;stroke:#FFD85F;stroke-width:3.9698;stroke-miterlimit:10;}
	.st510{fill:none;stroke:#FFD85F;stroke-width:3.9698;stroke-linecap:round;stroke-miterlimit:10;}
	.st511{opacity:0.1;fill:#D5E6FB;}
	.st512{opacity:0.1;fill:#4E97EE;}
	.st513{opacity:0.6;fill:#E8EBEF;}
	.st514{fill:#EFCB7B;}
	.st515{fill:#697A90;}
	.st516{fill:#034B93;}
	.st517{fill:#035293;}
	.st518{opacity:0.3;fill:#035293;}
	.st519{fill:#684429;}
	.st520{opacity:0.3;fill:#684429;}
	.st521{opacity:0.2;fill:#4E97EE;}
	.st522{opacity:0.5;fill:#EFCB7B;}
	.st523{fill:#C4DCF9;}
	.st524{opacity:0.2;fill:#EFCB7B;}
	.st525{opacity:0.14;fill:#4E97EE;}
	.st526{opacity:0.3;fill:#EFCB7B;}
	.st527{opacity:0.2;fill:#684429;}
	.st528{opacity:0.1;fill:#0959AA;}
	.st529{fill:#C5CDD6;}
	.st530{fill:#F5F9FE;}
	.st531{clip-path:url(#SVGID_64_);}
	.st532{fill:#38AEFD;}
	.st533{fill:#21A5FD;}
	.st534{fill:#6BE7BD;}
	.st535{fill:#8CECCC;}
	.st536{fill:#1B275B;}
	.st537{fill:#ED5C68;}
	.st538{fill:none;stroke:#FFFFFF;stroke-width:0.9357;stroke-miterlimit:10;}
	.st539{opacity:0.52;}
	.st540{fill:#F0F0F2;}
	.st541{fill:#C6CDD5;}
	.st542{fill:#64D59C;}
	.st543{fill:#4AA075;}
	.st544{opacity:0.2;fill:#4AA075;}
	.st545{opacity:0.38;fill:#306B4E;}
	.st546{opacity:0.1;fill:#4AA075;}
	.st547{fill:#80DDAE;}
	.st548{fill:#D6DBE1;}
	.st549{fill:#424952;}
	.st550{opacity:0.2;fill:#A2E6C4;}
	.st551{fill:#E0ECFA;}
	.st552{clip-path:url(#SVGID_68_);}
	.st553{fill:#245AA4;}
	.st554{opacity:0.1;fill:#245AA4;}
	.st555{fill:#5E97E7;}
	.st556{fill:#A4C5F1;}
	.st557{fill:#D8E6F9;}
	.st558{fill:#CFE0F8;}
	.st559{opacity:2.000000e-02;fill:#ACC9F3;}
	.st560{opacity:0.2;fill:#93B9EF;}
	.st561{fill:#3D6CBE;}
	.st562{fill:#F3D87B;}
	.st563{fill:#71B8DD;}
	.st564{fill:#DB6A61;}
	.st565{fill:#4F88B6;}
	.st566{fill:#C15948;}
	.st567{fill:#E9C681;}
	.st568{fill:#FADF8C;}
	.st569{fill:#4B77B5;}
	.st570{clip-path:url(#SVGID_70_);fill:#CBF7E8;}
	.st571{fill:#07439B;}
	.st572{fill:#3577B9;}
	.st573{fill:#6EAAF1;}
	.st574{fill:#9DC5F5;}
	.st575{fill:#AFCFF7;}
	.st576{fill:none;stroke:#0959AA;stroke-width:14.8493;stroke-miterlimit:10;}
	.st577{fill:#3498F5;}
	.st578{fill:#76B9F8;}
	.st579{fill:url(#SVGID_71_);}
	.st580{opacity:0.3;fill:#45A0F6;}
	.st581{fill:#5DADF7;}
	.st582{fill:#74B8F8;}
	.st583{fill:#389AF5;}
	.st584{opacity:5.000000e-02;fill:#0093FF;}
	.st585{opacity:0.85;fill:#96CBFA;enable-background:new    ;}
	.st586{opacity:0.85;fill:#A5D3FB;enable-background:new    ;}
	.st587{opacity:0.85;fill:#00E47D;enable-background:new    ;}
	.st588{clip-path:url(#SVGID_73_);}
	.st589{fill:#FFD100;}
	.st590{clip-path:url(#SVGID_75_);}
	.st591{fill:#00B0EA;}
	.st592{clip-path:url(#SVGID_79_);}
	.st593{fill:#0086CA;}
	.st594{opacity:0.27;clip-path:url(#SVGID_83_);fill:#E4B966;}
	.st595{clip-path:url(#SVGID_83_);fill:#E4B966;}
	.st596{clip-path:url(#SVGID_83_);fill:#B4965E;}
	.st597{opacity:0.29;clip-path:url(#SVGID_83_);fill:#AB8B4C;}
	.st598{clip-path:url(#SVGID_83_);fill:#FDF1CB;}
	.st599{clip-path:url(#SVGID_83_);}
	.st600{fill:#F3D9B6;}
	.st601{fill:#A2E6C4;}
	.st602{fill:#CDD3DA;}
	.st603{fill:#AB8B4C;}
	.st604{fill:#FCE8AB;}
	.st605{fill:#9FC1F1;}
	.st606{clip-path:url(#SVGID_83_);fill:#FEF6DF;}
	.st607{clip-path:url(#SVGID_83_);fill:#FEFBF1;}
	.st608{opacity:0.3;clip-path:url(#SVGID_83_);fill:#FBE192;}
	.st609{clip-path:url(#SVGID_83_);fill:#FDF1CE;}
	.st610{clip-path:url(#SVGID_83_);fill:#EBC989;}
	.st611{fill:#B4965E;}
	.st612{fill:#4B3115;}
	.st613{fill:#3E260F;}
	.st614{fill:#194178;}
	.st615{opacity:0.18;clip-path:url(#SVGID_85_);fill:#3D6CBE;}
	.st616{clip-path:url(#SVGID_85_);fill:#3D6CBE;}
	.st617{clip-path:url(#SVGID_85_);fill:#DBBC9A;}
	.st618{clip-path:url(#SVGID_85_);fill:#D0AA86;}
	.st619{clip-path:url(#SVGID_85_);fill:#D2E2F8;}
	.st620{clip-path:url(#SVGID_85_);fill:#E5EEFB;}
	.st621{opacity:0.58;clip-path:url(#SVGID_85_);fill:#E3EDFB;}
	.st622{fill:#D1E1F8;}
	.st623{fill:#E4CAAA;}
	.st624{fill:#DBBC9A;}
	.st625{fill:#87B2ED;}
	.st626{opacity:0.25;fill:#9FC1F1;}
	.st627{fill:#89B3ED;}
	.st628{fill:#EDF3FC;}
	.st629{fill:#C1D0EA;}
	.st630{fill:#205488;}
	.st631{fill:none;stroke:#EDF3FC;stroke-width:4.7019;stroke-miterlimit:10;}
	.st632{clip-path:url(#SVGID_87_);fill:#3D6CBE;}
	.st633{clip-path:url(#SVGID_87_);fill:#E8B372;}
	.st634{clip-path:url(#SVGID_87_);fill:#D19C61;}
	.st635{clip-path:url(#SVGID_87_);fill:#E0EBFA;}
	.st636{clip-path:url(#SVGID_87_);fill:#F9FBFE;}
	.st637{opacity:0.1;clip-path:url(#SVGID_87_);fill:#A4C5F1;}
	.st638{fill:#E8B372;}
	.st639{opacity:0.2;fill:#E8B372;}
	.st640{fill:#F9FBFE;}
	.st641{fill:#DFEBFA;}
	.st642{clip-path:url(#SVGID_89_);fill:#DB646B;}
	.st643{clip-path:url(#SVGID_89_);fill:#F9D873;}
	.st644{clip-path:url(#SVGID_89_);}
	.st645{opacity:0.27;fill:#E4B966;}
	.st646{fill:#9B7340;}
	.st647{fill:#845D33;}
	.st648{fill:#FEF8E6;}
	.st649{fill:#FCE8A9;}
	.st650{clip-path:url(#SVGID_89_);fill:#FAE08D;}
	.st651{fill:#5B3F1D;}
	.st652{fill:#966B3A;}
	.st653{opacity:0.2;fill:#3E361C;}
	.st654{clip-path:url(#SVGID_91_);fill:#64D59C;}
	.st655{opacity:0.2;clip-path:url(#SVGID_91_);fill:#4AA075;}
	.st656{clip-path:url(#SVGID_91_);}
	.st657{fill:#23503B;}
	.st658{fill:#306B4E;}
	.st659{fill:#D8A17B;}
	.st660{fill:#EAB58A;}
	.st661{fill:#C1EED7;}
	.st662{fill:#E7F0FB;}
	.st663{opacity:0.1;fill:#64D59C;}
	.st664{opacity:0.2;fill:#3C7459;}
	.st665{fill:#B0EACC;}
	.st666{fill:#70D8A4;}
	.st667{fill:#5AA981;}
	.st668{opacity:0.1;fill:#3C7459;}
	.st669{fill:#55A67D;}
	.st670{fill:#F2BF91;}
	.st671{opacity:0.2;fill:#306B4E;}
	.st672{fill:none;stroke:#1B412E;stroke-width:4.9492;stroke-miterlimit:10;}
</style>
<linearGradient id="SVGID_1_" gradientUnits="userSpaceOnUse" x1="38.5079" y1="1007.597" x2="1245.0167" y2="1007.597" gradientTransform="matrix(1 0 0 -1.95 0 3292.2)">
	<stop  offset="3.869048e-02" style="stop-color:#FFFFFF"/>
	<stop  offset="0.5368" style="stop-color:#CBD3DC"/>
	<stop  offset="0.9606" style="stop-color:#F9F8F9"/>
</linearGradient>
<rect x="38.5" y="1300.8" style="fill:url(#SVGID_1_);" width="1206.5" height="53.2"/>
<path class="st314" d="M886.6,1300.8h-285c-4,0-7.2,3.2-7.2,7.2v4.6c0,4,3.2,7.2,7.2,7.2h285c4,0,7.2-3.2,7.2-7.2v-4.6
	C893.7,1304,890.5,1300.8,886.6,1300.8z"/>
<path class="st314" d="M451.6,1300.8H91.5c-4.4,0-8,3.6-8,8v2.9c0,4.4,3.6,8,8,8h360.1c4.4,0,8-3.6,8-8v-2.9
	C459.6,1304.4,456,1300.8,451.6,1300.8z"/>
<path class="st314" d="M1164.8,1313.8H804.7c-4.4,0-8,3.6-8,8v2.9c0,4.4,3.6,8,8,8h360.1c4.4,0,8-3.6,8-8v-2.9
	C1172.9,1317.4,1169.3,1313.8,1164.8,1313.8z"/>
<g>
	<path class="st6" d="M720.6,1188c1.6,20.7,3.2,41.4,4.9,62c0.1,1.2,0.3,2.5,1.3,3.2c0.7,0.5,1.6,0.4,2.5,0.4
		c12.7-0.7,25.3-1.4,38-2c0.4-23.5,0.9-47,1.3-70.5"/>
	<path class="st7" d="M771.9,1268.8c5.1-11,0-29.6-4.7-32.1c-3.2,5.1-10.4,7.9-15.7,4.2c-2-1.4-3.5-3.4-5-5.4
		c-5.6-7.4-13.2-14.7-22.4-14.6c-3.8,0-7.8,1.6-9.8,4.8c-2,3.2-1.2,8.2,2.2,9.9c-16.5,14.2-33,28.4-49.5,42.7
		c-5,4.3-13.5,11.8-10.9,17.8c1.4,3.3,4.9,6.9,8.3,8.3c16.9,7,36.8,8.9,52-1.2C741.2,1286.5,766.1,1281.3,771.9,1268.8z"/>
	<path class="st6" d="M839.3,1186.5c3.2,20.5,6.3,41,9.5,61.5c0.2,1.2,0.5,2.5,1.5,3.1c0.7,0.4,1.7,0.3,2.5,0.2
		c12.6-1.6,25.1-3.2,37.7-4.9c-1.3-23.5-2.6-46.9-4-70.4"/>
	<path class="st7" d="M888.6,1275.1c0.9-0.5,1.8-1.1,2.5-1.9c0.5-0.6,0.9-1.4,1.3-2.1c4.9-9.5,5.2-22.3-2.3-30
		c-4.3,4.6-11.5,7.1-16.7,1.9c-1.7-1.7-2.8-4-3.9-6.2c-4.1-8.3-10.2-16.9-19.3-18.6c-10.6-1.9-10.5,5.7-13.5,13.1
		c-0.8,2-2.3,3.6-3.8,5.2c-14.4,15.1-29.8,29-45.5,42.8c-4.2,3.7-8.5,7.5-11.1,12.4s-3.2,11.4,0.1,15.9c2.7,3.8,7.5,5.5,12,6.7
		c4.7,1.2,9.5,2.1,14.4,2.5c2.9,0.3,5.8,0.4,8.6,0.1c7-0.9,13.2-4.7,19.3-8.4c18.6-11.4,37.6-22.4,56.8-32.8
		C888,1275.4,888.3,1275.3,888.6,1275.1z"/>
	<path class="st65" d="M766.6,410.6c-0.5,0.2-1,0.5-1.5,0.7c-10.5,5.2-19.8,12.7-29.9,18.8c-7.6,4.6-15.6,8.3-24,11.2
		c-5.4,1.9-11,3.3-16.1,5.9c-23.3,11.5-42.8,35.1-33.9,62.3c0.9,2.8,2.4,5.8,5.1,7.1c2,0.9,4.3,0.7,6.5,0.3
		c6.6-1.2,56.2-13.5,64.3-15c12.8-2.3,24.9-7.5,36.6-13.2c13.1-6.4,26.2-13.7,35.3-25.1c9.1-11.4,13.4-27.6,7.2-40.8
		c-3.4-7.1-9.6-12.9-17-15.5C788.6,403.5,776.8,405.9,766.6,410.6z"/>
	<path class="st63" d="M581.3,454.4c3.6-4.2,5.3-9.9,4.5-15.4c-0.3-1.8-0.8-3.6-1.9-5c-1.6-2.2-2.8-4.1-5.3-5.1
		c-0.9-0.4-0.3-1-1.2-0.8c-0.7,0.1-4.4,1.6-5,2c-6.8,4.4-10,12.8-16.3,17.8c-4.4,3.5-5.5,5.9-4.9,8.3c1,4.1,6.6,5.7,10.8,6.1
		c2,0.2,4.2,0.3,6.1-0.5c2.2-0.9,3.9-2.8,5.5-4.6c2.3-2.7,4.6-5.3,6.9-8"/>
	<path class="st315" d="M599.8,475.7c0.9-0.4,1.8-0.8,2.6-1.3c5.6-3.5,8.3-10.6,7.9-17.2c-0.7-10.2-9.5-13.3-17.5-17.1
		c-8.8-4.3-17.5-9-25-15.4c-10.5-8.9-18.3-20.6-26.7-31.5c-1.8-2.4-3.8-4.8-6.5-6c-1.9-0.8-4.1-1-6.1-1.1
		c-6.3-0.3-12.6-0.3-18.9-0.1c1.6,8.5,3.2,17,4.7,25.5c1,5.5,2.1,11,4.5,16c2.4,5,6.4,9.5,11.6,11.4c2.2,0.8,11.3,1,13.4,2
		c2.6,1.2,4.9,4.5,6.8,6.6c3.7,4.2,7.3,8.5,10.9,12.8c3.2,3.9,8.6,6.5,13,9.1c4.4,2.6,6,5.9,11,6.9
		C590.3,477.3,595.4,477.4,599.8,475.7z"/>
	<path class="st65" d="M694.4,495.7c-1.7,10-15.9,23.2-30.1,21.1c-13.9-2-51.3-13.5-62.2-19.4c-15.5-8.4-29.3-22.1-32.5-29.8
		c-0.2-0.5,2.1-10.5,6.6-14.1c2.1-1.7,4.4-3.3,6.4-5.1c1.9-1.7,5.1-7.1,7.4-8.4c4.6-2.7,22.3,2.7,32.2,7.4
		c13.4,6.4,50.9,12.1,53.7,14.7C681.7,467.7,695.9,486.5,694.4,495.7z"/>
	<g>
		<path class="st66" d="M595.3,439.5c-5-3.8-4.1-4-7.7-6.3c-2.6-1.7-5.1-3.7-8.1-4.3c0.8,0.6,1.3,1.5,1.7,2.4
			c1.3,3.7,2.6,6.7,1.3,10.4c-1.3,3.7-3.9,6.8-6.6,9.6c-3.1,3.2-6.5,6.2-10.5,8c-4.1,1.8-8.9,2.3-12.9,0.4
			c6.3,2.9,14.2,6.4,19.3,11.1c0.5,0.4,2.5,1.1,3,1c3.2-0.4,6.3-1.1,9.1-2.7c3.8-2.1,4.6-5.1,6.9-8.8
			C594.2,454.8,593.8,440.6,595.3,439.5z"/>
		<path class="st6" d="M580,431c1.3,1.7,1,4.6,0.9,6.8c-0.5,9.1-8.1,16.4-16.3,20.2c-2.7,1.3-5.8,2.3-8.7,1.5
			c-2.9-0.7-5.4-3.9-4.4-6.7c-2.2,2.2-0.8,6.3,1.9,7.8s6.1,1,9.1,0.1c8.1-2.5,15.3-8,19.8-15.2c2.1-3.3,3.6-7.3,2.9-11.1
			c-0.9-4.5-6.2-8.3-10.4-5.3C577.3,428.6,578.9,429.5,580,431z"/>
	</g>
	<g>
		<polygon class="st316" points="697.3,116.1 592.3,187.9 449.2,162.4 544.6,90.4 		"/>
		<polygon class="st317" points="616.8,171.3 592.3,187.9 449.2,162.4 545.3,90.3 		"/>
		<polygon class="st7" points="697.3,116.1 592.3,187.9 560.4,337.4 647.1,437 747.8,359.1 771.5,210.3 		"/>
		<polygon class="st318" points="560.4,337.4 592.3,187.9 449.2,162.4 416.8,311.7 		"/>
		<polygon class="st319" points="560.4,337.4 647.5,436.8 503.8,411.2 416.8,311.7 		"/>
	</g>
	<g>
		<path class="st315" d="M533.3,418.4c-1.7-4.1-5.4-6.8-8.9-9.2c-0.1-3.4-0.2-6.7-0.3-10.1c0-1-0.1-2.1-0.2-3.1
			c-0.6-4.3-3.8-9.1-8.1-9.4c-0.5,0-1.1,0-1.4,0.5c-0.3,0.4-0.3,1-0.2,1.5c0.1,1.9,0.3,3.8,0.4,5.7c-0.5-2.2-1-4.5-1.9-6.5
			c-1-2-2.5-3.8-4.5-4.5c-1.2-0.4-2.6-0.4-3.6,0.3s-1.7,2.4-1.1,3.6c-2.4-1.1-5.6-1.7-7.5,0.4c-1.6,1.8-1.5,4.5-1.3,6.9
			c-0.9-0.6-2.1-1.3-3.1-0.8c-1.4,0.6-1.7,2.6-1.7,4.2c-0.2,7.2-0.4,14.3-0.6,21.5c0,0.8,0,1.7,0.2,2.4c0.5,1.9,2.3,2.9,3.9,3.7
			c4.1,2.1,8.1,4.2,12.2,6.3c1.1,0.6,2.2,1.1,3.4,1.2c0.4,0,0.7,0,1.1,0.1c0.6,0.2,1.1,0.8,1.6,1.3c2.4,2.5,6.8,2.2,9.1-0.6
			c0.8,2.1,3.3,2.8,5.3,2.1c2-0.7,3.6-2.4,5-4.1c1.5,0.3,3.1-0.5,4.3-1.5c1.2-1.1,2.2-2.4,3.2-3.7c2.2-2.7,4.7-5,7.5-6.9"/>
		<path class="st320" d="M514.8,394.3c0,0,1.2,10.8,1.9,16.3s4.2,23.3,4.2,23.3l-7.3-23.4c0,0-1.9-17.5-4.5-22.8
			c-2.6-5.3-4.9-3.2-4.9-3.2s2.6-3.9,6.5,0.2C514.3,388.6,514.8,394.3,514.8,394.3z"/>
		<path class="st320" d="M509.4,432.1l-6.6-19.1l0.8-25.7c0,0-2.4-1.8-5.6-0.8c0,0,2.6,2.4,2.8,5.6s-1.7,16.6-0.8,21.3
			C501,417.9,509.4,432.1,509.4,432.1z"/>
		<path class="st320" d="M493.9,394.7l-0.3,19.9l9.4,15.1c0,0-9.7-11-10.6-14.3s0.3-21.3-0.8-21.6
			C491.7,393.8,493.9,393.1,493.9,394.7z"/>
	</g>
	<path class="st241" d="M767.1,412.2c-1.5,0.5-2.9,1.2-4.2,2c-4,2.6-6.7,6.8-9.1,10.9c-3,5-5.8,10-8.5,15.1
		c-5.2,9.9-9.8,20.2-16.1,29.5c-6.2,9.3-14.3,17.7-24.6,22.2c-3.2,1.4-6.5,2.4-9.9,3.1c-3.7,0.7-7.6,0.5-11.2,1.3
		c-7.1,1.5-13.5,2-20.8,1.2c-9.1-1.1-18-3.1-26.7-6c-22.9-7.7-36.8-11.6-59.9-18.9c6.9,14.5,31.7,25.4,55.7,34
		c12.6,4.5,35.6,9.3,39.6,8.3c16.9-4.1,52-10.5,65.9-13.1c12.8-2.3,24.9-7.5,36.6-13.2c13.1-6.4,26.2-13.7,35.3-25.1
		c6.3-7.8,8.4-16.2,10.3-25.8c1.7-8.8-4-15.7-11.8-19.9c-6.7-3.6-14.3-4.9-21.7-6C779.6,411,772.9,410.3,767.1,412.2z"/>
	<path class="st37" d="M734.3,656.9c0.4,25.4-43.6,215.2-40.7,264c1.8,29.6,4.2,80.2,6.4,109.8c2.9,38.9,14,114.6,16.9,153.5
		c0.2,2,0.4,4.2,1.7,5.7c1.5,1.6,3.8,1.9,5.9,2.2c19.5,2.9,27.8-2.9,45.9,1.6c2.9-63.6-5.5-201.4-4-265.1
		c0.7-28.4,62.2-106.8,61.5-198.6c0-4-15.9-21.4-17.7-25c-1.7-3.3-4.7-5.8-7.6-8.2c-11.7-9.6-23.4-19.3-35.2-28.9"/>
	<path class="st321" d="M770.5,1193.8c2.9-63.6-5.5-201.4-4-265.1c0.3-13.9,9.1-28.4,14.9-40.6c10.1-21.4,20.4-42.7,28.6-65
		c9.6-26.3,16-53.4,17.8-81.5c1.3-21.5-26.6-48.7-41.2-63.5c-11.5-11.7-24.6-22-39.5-29c8.8,24.4,9,51.2,5,76.8
		c-3.9,25.6-11.9,50.5-19,75.4c-13.6,47.4-24.5,96-23.9,145.3c0.2,18,1.9,35.9,3.7,53.8c6.2,64.4,12.5,128.9,18.7,193.3
		C734.2,1193,770.7,1190.3,770.5,1193.8z"/>
	<path class="st37" d="M873.1,674.1c18.2,30.7,17.8,68.4,17.4,104c-1.3,131.2-13.9,287.8-1.3,418.4c-21.6-5.6-28.5-2.6-50.7-1.2
		c-18.4-127.9-40-269.4-40.8-275.6c-2.1-15.8-15.1-161.1-25.7-234.9"/>
	<path class="st41" d="M776.7,1178.4c-0.8,8-1.5,16.1-2.3,24.1c-5.4-3.2-12.1-2.1-18.3-1.5c-12.9,1.2-40.6-4.8-41.7-4.4
		c-1.1,0.3-3.8-21.3-2.1-33.1c10.2,1.3,20.5,1.6,30.7,0.8C755,1163.3,778.5,1160.1,776.7,1178.4z"/>
	<path class="st41" d="M890.1,1202.6c-7.6-3.6-16.5-2.3-24.9-1.6c-7.9,0.7-15.8,0.7-23.7,0.1c-1.3-0.1-2.7-0.2-3.8-0.8
		c-1.2-0.6-2.1-1.6-2.9-2.7c-6-8.7-2.1-20.8-5-30.9c10.3,3,21.2,3.8,31.8,2.3c6.6-0.9,25.7-7.2,30-0.1c2.1,3.5,1.1,11.3,1,15.1
		C892.4,1190.3,891.6,1196.5,890.1,1202.6z"/>
	<path class="st69" d="M870.1,660.7c2.1,3.2,4.2,6.5,6.3,9.7c1,1.6,2.1,3.2,2.2,5.1c0.1,2.4-20.9,28.9-52.6,35.8
		c-68.6,14.9-97.4-21.7-97.8-22.9c-0.3-0.8-0.3-1.6-0.4-2.4c-0.7-9.6-1.4-19.1-2.1-28.7c14.7,0.2,29.4,0.3,44.1,0.5"/>
	<path class="st322" d="M782.8,260c-1.6,8-1.3,13.7,5.9,27.6c6.6,12.7,9.4,22.7,16.3,30.3c7.8-10.2,9-11.7,16.9-21.9
		c0.8-1,1.6-2.1,1.5-3.4c-0.1-1.1-0.7-2-1.4-2.8c-5.1-6.4-11.4-11.8-18.4-16.1"/>
	<path class="st63" d="M798.8,423.9c-3.1-9.8-2.8-20.6,0.7-30.2c0.3-0.7,0.5-1.4,1-1.9c0.7-0.9,1.8-1.5,2.8-2c2.2-1.1,4.6-2,6.9-2.7
		c4.5-1.4,9.3-2,13.9-2.5c17.3-2.1,34.5-4.3,51.8-6.4c1.8-0.2,3.6-0.4,5.3,0.3c1.2,0.5,2.1,1.6,2.9,2.7c1.7,2.6,2.5,5.7,2.8,8.8
		c0.7,7.4-1.4,15-5.6,21.1c-4.2,6.1-10.6,10.6-17.8,12.6c-5.7,1.6-11.8,1.5-17.6,2.5c-3.6,0.6-7.1,1.6-10.7,2
		c-3.5,0.4-7.1,0.2-10.6,0.1c-6.3-0.3-12.6-0.6-18.8-0.9c-0.6,0-1.3-0.9-0.7-0.9"/>
	<path class="st315" d="M868.4,342.3c-4.4,12-7.8,24.5-7.5,37.2c0.3,12.7,4.9,25.8,14.4,34.2c-8.6,7.7-17.3,15.6-27.8,20.3
		s-23.2,6-33.4,0.5c-8.4-4.5-13.8-12.9-18.9-21c3.2-0.1,9-6.8,10.1-9.9c2.8-7.9,4.5-16,4.6-24.4c0-2.8-0.1-5.6,1-8.2
		c0.8-2,2.1-4,3.6-5.5c8.2-8.3,13.7-12.2,24-17.7"/>
	<path class="st320" d="M795.2,413.6c3.2-0.1,9-6.8,10.1-9.9c2.8-7.9,4.5-16,4.6-24.4c0-2.8-0.1-5.6,1-8.2c0.8-2,2.1-4,3.6-5.5
		c4.1-4.1,8.3-8,13.1-11.2c4.8-3.3,9.3-2.1,14.4-4.7c2.6-1.4,5.1-3.1,7.8-4.3c2.6-1.2,5.4-2,8.2-2.7c2.5-0.7,5-1.3,7.6-2
		c4.4-1.1,3.7,11.1,3.1,13.9c-1.4,7.4-0.4,9-7.3,12.1c-10.9,5.1-23.5,14.1-29.1,19.2s-5.7,11.3-3.2,18.4c1.8,5.1,6.5,8.7,11.6,10.4
		c3.6,1.3,7.2,1.3,11,1.9c2.7,0.4,5.5,2.3,8.3,1.6c1.7-0.5,3.4-1.2,5-0.6c0.3,0.1,0.6,0.3,0.7,0.6c0.1,0.3-0.1,0.6-0.3,0.8
		c-2.9,4-6.1,7.8-9.4,11.3c-2.5,2.7-5.2,5.4-8.5,7.1c-9.3,5.1-21,3.2-30-1.3c-4.9-2.5-9-5.1-12.8-9.3
		C803.3,425.3,796.2,413.6,795.2,413.6z"/>
	<path class="st320" d="M795.2,413.6c3.2-0.1,9-6.8,10.1-9.9c2.7-7.8,4.6-16.1,4.6-24.4c-0.1-6.9,1.9-13.3,7.9-17.5
		c2.9-2,6.4-3.2,9.1-5.5c-4.3,8.9-7.9,18.2-8.8,28.1s0.8,20.1,6.4,28.3c2.5,3.6,5.7,6.7,9,9.7c5.2,4.6,11,9,17.8,10.5
		c0.8,0.2-4.8,5.4-5.6,5.7c-2.4,1.1-5.2,1.1-7.7,1.5c-6.9,1-14.3-1-20.5-4.1c-4.9-2.5-9-5.1-12.8-9.3
		C803.3,425.3,796.2,413.6,795.2,413.6z"/>
	<path class="st6" d="M905.6,441c11.5,7.9,17.4,22.2,17.8,36.2c0.4,13.9-4.1,27.6-10.1,40.2c-5.5,11.7-12.7,22.5-18.5,33.9
		c-5.9,11.6-9.3,25.6-12.8,38.1c-7.3,26.1-10,34.1-12.1,61.1c-0.6,8-1.1,16.4-5.1,23.4c-3.9,6.7-10.6,11.3-17.5,14.7
		c-32.2,16.1-74,10.6-101-13.2c-24.3-21.4-31.6-33.7-31.7-64.7c-0.1-31.7,3.7-63,7.4-94.4c3.3-28.1,13.1-55,22.9-81.5
		c1.5-4.2,3.1-8.5,5.8-12c8.1-10.9,23.4-12.8,37-13.7c3.2-0.2,6.6-0.4,9.6,0.9c2.2,1,4,2.7,5.9,4.3c8.3,7.1,11.3,19.7,22.1,21.8
		c8.2,1.7,23.8-5.8,32.1-6.9c10.3-1.3,20.7-4,30.9-2.1c10.2,1.8,20.3,10,19.8,20.4"/>
	<path class="st6" d="M905.6,441c11.5,7.9,17.4,22.2,17.8,36.2c0.4,13.9-4.1,27.6-10.1,40.2c-5.5,11.7-12.7,22.5-18.5,33.9
		c-5.9,11.6-9.3,25.6-12.8,38.1c-3.8,13.5-6.6,47.8-7.8,61c-2.5,28.2-15.6,35.2-39.3,46.7c-22.1,10.7-67.5,11.9-97.1-11.2
		c-30.7-23.9-23.1-41.1-23.2-75.2c-0.1-31.7,3.7-63,7.4-94.4c3.3-28.1,13.1-55,22.9-81.5c1.5-4.2,3.1-8.5,5.8-12
		c8.1-10.9,23.4-12.8,37-13.7c3.2-0.2,6.6-0.4,9.6,0.9c2.2,1,4,2.7,5.9,4.3c8.3,7.1,11.3,19.7,22.1,21.8c8.2,1.7,23.8-5.8,32.1-6.9
		c10.3-1.3,20.7-4,30.9-2.1c10.2,1.8,20.3,10,19.8,20.4"/>
	<path class="st69" d="M909.3,519.3c-0.1,0.3-0.2,0.7-0.2,1c-0.3,2.1,0.1,4.2-0.5,6.4c-2.4,9.3-9.5,16.3-13.7,24.7
		c-5.9,11.6-17.2,44.6-19.5,57.4c-2,11.1-2.6,22.4-4.7,33.4c-3.9,20-16.1,38.4-33.4,49.2c5.6-24.6,2.9-50.3-0.3-75.3
		c-1.2-9-14.1-23.8-18.8-31.7c-4.4-7.5-10.3-13.9-15.7-20.7c-22.3-27.7-37.3-61.2-43.1-96.3c-2.4-14.6-3.1-30.2,2.9-43.7
		c0.3,6,4.4,11.2,8.2,15.9c3.2,4,10.9,5.3,15.7,6.3c6.2,1.3,12.6,1.6,19,1c5.9-0.6,11.9-2,17.6-0.3c3.2,1,6,2.9,8.8,4.8
		c3.1,2.1,6.2,4.2,9.3,6.4c4,2.7,8.7,5.5,13.2,4.2c4.3-1.3,6.7-5.8,9-9.7c3.8-6.5,8.6-12.5,14.2-17.7c3-2.8,6.4-5.4,10.4-6.1
		c5.9-1.1,11.8,2.2,16.1,6.4c11,10.9,13.8,27.4,15.2,42.8c0.6,7,1.1,14-0.2,20.9c-1,5.6-3.2,11-6.4,15.7
		C911.1,516.1,909.8,517.4,909.3,519.3z"/>
	<path class="st70" d="M909.6,511.4c1.9,3,2.5,6.9,1,11.8c-1.7,5.2-5.4,9.5-8.8,13.9c-13.6,17.8-29.4,58.3-31.5,80.6
		c-0.6-9.8,5.4-30.8,4.5-40.5c-0.1-0.9-0.2-1.7-0.6-2.5c-1.5-2.3-5-1-7.4,0.1c-7.9,3.5-17.1,3.2-25.3,0.5
		c-8.2-2.7-15.5-7.7-22.1-13.2c-30.6-25.4-49.6-64.3-50.8-104.1c-0.2-7.9,0.2-15.8-1.3-23.5c18.3,26.2,37.5,54.8,63.3,74.3
		c11.9,9,27,16,41.4,12.1c5.8-1.6,11-4.9,16.7-6.8C896.3,511.3,905.8,505.7,909.6,511.4z"/>
	<path class="st71" d="M860.6,410.2c1-0.9,2-1.8,2.9-2.7c6.5-6.1,12-13.3,16.2-21.1c0.9-1.6,1.7-3.3,1.6-5.1
		c-0.1-1.8-1.6-3.6-3.4-3.4c4.4,0.1,14.8,5,11.4,10.7c4.5,2.2,7.8,6.7,7,11.9c7.7,5.3,20.4,11.9,22.1,24.1
		c-16.6,9.6-34.4,13-53.6,13.3c-11.9,0.2-36,3-38.6-2.4c2.4-5.7,10.5-8.9,15.6-11.6C848.2,420.5,854.8,415.3,860.6,410.2z"/>
	<path class="st72" d="M860.6,410.2c1-0.9,2-1.8,2.9-2.7c6.5-6.1,12-13.3,16.2-21.1c2.2-4.1,2-9.9-4.4-8.4c2.9-0.3,6.2-0.5,8.5,1.3
		c1.8,1.4,2.7,3.7,2.7,5.9c0.1,2.2-0.6,4.5-1.4,6.5c-3.4,8.8-9.7,16.5-17.6,21.7c-6.3,4.2-13.5,6.7-20.4,9.8
		c-7,3.1-13.2,6.9-18.4,12.5c-0.9-5.7,9-9.7,12.9-11.8C848.2,420.5,854.8,415.3,860.6,410.2z"/>
	<path class="st6" d="M795.8,392.2c-2.2,1.7-4.1,3.9-5.1,6.4c-0.2,0.4-0.3,0.8-0.5,1.1c-0.2,0.4-0.6,0.7-0.9,0.9
		c-2.5,2.3-5.2,4.8-8.5,5.7c-4,1.2-8.4,2.5-10.8,6.4c1.1,7.1,6,13.5,12.5,16.3c2.6,1.1,5.4,1.7,8.2,2.3c11,2.1,34.2,15.2,35.2,3.9
		c-1.8-3.9-7-7.8-9.8-11.5c-3.1-4.2-6.5-8.2-9.5-12.6c-3-4.4-6.9-8-5.9-13.9c0.8-4.5,4.3-8.3,8.7-9.5c-3.8,0.2-7.6,0.9-11,2.7
		C797.5,391,796.6,391.5,795.8,392.2z"/>
	<path class="st315" d="M887.4,314.1c-5,16.2-16.1,24.2-25.6,38.2c-5.6,8.3-12.5,15.7-17,18c-9.5,4.9-13.2,5.1-23.5,8.4
		c-8.2,2.6-18.5,2.7-22.1,0.4c-5.3-3.3-5-13.3-5.7-19.4c-2.9-28.1-4.6-48,6.9-70.8c2.5-4.9,10-20.5,14.2-24
		c3.3-2.7,7.3-4.4,11.5-5.5c12.9-3.3,27.1-0.3,38.1,7.2c11,7.6,18.7,19.4,22.1,32.3"/>
	<path class="st320" d="M803.9,285.4c3.9-1.7,8.4-2.3,12.6-2.1c5.6,0.2,11,1.8,16.3,3.8c8.7,3.3,17.4,8.5,21.4,16.9
		c2.4,4.9,3,10.4,4.3,15.7c1.7,5.8,4.6,11,6.7,16.7c-7.5,3.1-17.4,6.3-22.5-2.2c-2.9-4.8-2.5-11.4-6.2-15.6c-2-2.3-5-3.5-7.8-4.7
		c-10.1-4.1-20.3-8.3-30.4-12.4c-0.7-0.3-1.5-0.6-2-1.3c-0.8-1.1,2.1-6.3,2.7-7.8C800,289.9,801.3,286.5,803.9,285.4z"/>
	<path class="st63" d="M795,415.6c1.2-1.4,1.9-3.4,1.8-5.3c-0.1-1.9-1.1-3.9-2.9-4.5c-0.8-0.3-1.8-0.2-2.6-0.1
		c-3.5,0.5-6.8,2-9.9,3.6c-5.8,3.1-14.6,6-19.3,10.5c-1.1,1.1-2.2,2.2-3.1,3.5c-0.8,1.3-1.4,2.8-1.5,4.4c-0.1,0.9,3.3,2.8,3.7,3.6
		c0.5,0.8,1.3,1.4,2.2,1.7c1.9,0.6,3.9,0.3,5.8-0.2c4.1-1.1,7.9-2.8,11.4-5.1"/>
	<path class="st315" d="M734.1,330c-0.8,14.6-1.7,29.7,1.6,44.1c1.4,6.3,1.1,12.9,4.8,18.2c3.6,5.2,9.7,8.3,9.7,8.3
		c12.1,23.6,9.9,23.3,17.9,48.6c3.9,12.2,57-0.4,51.3-8c-5.3-7.1-44-46.9-46.1-57.3c-2-10.1-0.9-19,1.3-29.1
		c1.2-5.4,2.3-8.9,1.3-14.3c-1.9-10.8-11.8-20.1-21.9-24.3c-4.3-1.8-9.3-3.2-13.4-1.1C735.6,317.7,734.4,324.3,734.1,330z"/>
	<path class="st320" d="M769.6,439.8c2,5.7,6.2,12.9,5,19.2c0.6-3,2.9-5.5,5.9-6.2c-7.5-15-12.8-31-18.1-46.9c-1-3.1-2-6.1-3.1-9.2
		c-1.6-4.9-3.3-9.8-4.4-14.9c-2.5-11.8-6.5-25.4-6.1-37.2c0.2-4-0.1-8.4-2.5-11.6c-2.4-3.2-7.8-4.5-10.5-1.5
		c-1.6,1.7-1.9,4.2-2.1,6.5c-0.9,12.3-0.7,24.1,2,36.2c1.4,6.3,3.8,12.4,7.4,17.7c3.6,5.2,7.8,4.6,10.7,10.4
		C760,414.3,765.1,426.9,769.6,439.8z"/>
	<path class="st320" d="M741.1,337.5c2.3,0.4,4.6,1.2,6.6,2.6c1.8,1.2,3.4,2.8,4.3,4.8c0.8,1.6,1.2,3.4,1.5,5.2
		c0.2,1.2,0.4,2.5,0.2,3.7c-0.2,1.2-0.7,2.3-1.3,3.3c-2.7,4.4-7.7,6.8-12.5,6.8c-1.6-8.5-2.5-17.2-2.8-26c0.4,0.2,0.7,0.3,1.1,0.5"
		/>
	<polygon class="st7" points="697.3,116.1 592.3,187.9 560.4,337.4 647.1,437 747.8,359.1 771.5,210.3 	"/>
	<path class="st315" d="M773.8,334.7c-3.4-8.1-6.8-16.1-10.1-24.2c-0.5-1.3-2.7-5.2-3.9-6c-3.5-2.1-34.4-3.9-34.8-1.1
		c-0.2,1.3,1.3,2.3,2.5,2.9c2.9,1.5,6,2.6,9.2,3c4.6,0.6,15,2.2,15,2.2s2.4,4.6,3.8,7.1c3.2,5.3,6.4,10.6,9.6,15.9"/>
	<path class="st320" d="M755.4,318.7c0.8,1.4,9.9,15.7,9.2,16.1c0.9-0.5,2.3-0.3,2.8-1.2c0.3-0.5,0.1-1.1-0.1-1.6
		c-2.4-7.7-6.8-14.5-11.5-20.9c-0.4-0.5-0.8-1-1.3-1.4c-0.7-0.5-1.5-0.7-2.3-0.9c-6.2-1.5-12.7-1.4-19.1-2.1c-3-0.3-6.1-0.9-8.4-2.8
		c0.5,2.3,2.5,2.7,4.4,3.5c2.4,1.1,4.9,1.8,7.4,2.1c4.6,0.6,15,2.2,15,2.2S753.9,316.2,755.4,318.7z"/>
	<path class="st315" d="M768.8,334c-4.3-5.3-8.7-10.6-13-15.9c-1-1.2-2.1-2.5-3.4-3.4c-2.2-1.5-5.1-1.9-7.8-2.1
		c-4.1-0.3-8.1-0.1-12.2,0.3c-1.4,0.2-2.8,0.4-4.2,0.9c-1.2,0.5-2.4,1.3-3.4,2.1c-3.6,2.7-6.9,5.7-9.9,9.1c-0.2,0.2-0.4,0.5-0.4,0.9
		c0,0.2,0.1,0.5,0.3,0.6c1,1.5,2.9,2.3,4.7,2.4c1.8,0.1,3.6-0.4,5.3-1c1.8-0.7,3.5-1.6,5.2-2.6c0.9-0.6,1.8-1.2,2.8-1.5
		c0.7-0.2,1.5-0.2,2.2-0.2c3.1,0.1,6.2,0.9,9.2,1.6c1.1,0.3,2.3,0.6,3.4,1.1c1.3,0.6,2.4,1.6,3.5,2.5c2.7,2.4,5.5,4.7,8.2,7.1"/>
	<path class="st320" d="M719.5,328.9c1.8,0.1,3.6-0.4,5.3-1c1.8-0.7,3.5-1.6,5.2-2.6c0.9-0.6,1.8-1.2,2.8-1.5
		c0.7-0.2,1.5-0.2,2.2-0.2c3.1,0.1,6.2,0.9,9.2,1.6c1.1,0.3,2.3,0.6,3.4,1.1c1.2,0.6,1.9,1.4,2.8,2.2c1.2,1.1,2.7,1.8,4.1,2.6
		c3.2,1.8,6.4,3.6,9.6,5.4c-4.4-4-7.6-9.2-12.1-13.1c-1.1-1-2.4-1.9-3.8-2.6c-1.1-0.5-2.2-0.9-3.4-1.1c-7.9-1.9-16.7,0-23.1,5
		c-1,0.8-2.1,1.7-3.3,2c-1.3,0.3-2.7,0.1-3.7-0.7c0.5,0.4,0.9,1.4,1.6,1.9C717.2,328.5,718.4,328.8,719.5,328.9z"/>
	<path class="st315" d="M761.7,349c-1.1-1.2-2.5-2.2-3.9-3.1c-3.1-2-6.1-4.1-9.2-6.1c-2.4-1.6-4.8-3.2-7.4-4.2
		c-3.9-1.6-6.9-1.9-6.9-1.9c-3.6,0.7-11.8,4.3-15.4,4.6c-3.6,0.4-7.8-0.9-9.2-4.3c-0.9-2.5,25.6-11.8,26.4-11.7
		c1,0.1,12.9,1.5,16.6,4.5c1.4,1.1,11.3,9.3,13.7,13.2c0.1,0.2,0.2,0.4,0.4,0.4c0.2,0,0.4-0.2,0.3-0.4"/>
	<path class="st322" d="M810.1,229.7c1.9-1.6,3.6-3.3,5.7-4.7c3.7-2.5,8.3-3.7,12.8-3.3c7,0.6,13.3,6.4,18.7,10.5
		c7.1,5.3,13.4,11.6,21.4,15.7c6.9,3.5,14.5,5.1,21.7,7.7c7.2,2.7,14.4,6.8,17.9,13.7c3,5.7,3.1,12.5,6.2,18.1
		c4.1,7.3,8.8,13.7,9,22.5c0.2,7.9-3.1,16-9.3,21c-5.5,4.4-13.1,6.8-16.7,12.9c-1.5,2.5-2.1,5.3-3.1,8
		c-3.8,10.9-11.7,20.1-23.4,22.1c-3,0.5-7.2,1.8-10.1,0.9c0.1-11,0.7-24,1.4-26.2c0.9-2.7,1.9-16.4-0.8-18.4
		c-1.6-1.2-1.2-1.3-2.8-0.1c-2.2,1.6-2,5.7-4.7,6.2c-1.7,0.3-6.4-1.5-6.8-3.3c-0.4-1.7,0.1-3.5,0.5-5.2c0.9-3.8,1.5-7.7,1.8-11.7
		c0.2-3.6,0-7.6-2.8-10c-2-1.7-4.7-1.9-7.3-2.2c-16.2-1.5-31.6-4.1-44.3-15.2c-9.1-8-15.4-19.6-16.1-31.7
		c-0.3-5.3,0.5-10.8,3.5-15.2c2.2-3.2,5.6-5.6,9.3-6.6c4.5-1.3,9.5-0.7,13.8-2.7C807.3,231.8,808.7,230.8,810.1,229.7z"/>
	<path class="st323" d="M836.2,228.9c4.9,4.5,4.3,12.6-1.7,16.2c-3.4,2.1-7.7,2-11.5,3.1c-3.8,1.1-7.7,4.6-6.7,8.5
		c0.8,3,4.2,4.5,7.2,5.4c8.8,2.5,18.1,2.9,26.9,5.3c8.8,2.5,17.6,7.6,21,16.1c1.9,4.8,2,10.3,4.8,14.6c2.2,3.4,5.8,5.6,9.5,7.2
		c2.3,1,4.7,1.9,7.2,1.9c2.5,0,5.1-1,6.6-3c2.2-3.1,1.6-8,4.7-10.1c2.4-1.6,5.6-0.6,7.9,1.1c4.1,3,6.6,7.9,6.9,13
		c0.4,6.3-2.5,14.1-7.9,17.7c-2.1,1.4-4.5,2.2-6.8,3.3c-1.9,0.9-3.6,2-5.3,3.2c-1.4,1-3,1.6-4.5,2.5c-3.4,2.1-6.7,4.6-8.9,8.1
		c-1.3,2-2.1,4.2-3.1,6.3c-2.7,5.4-6.8,10-11.9,13.2c-0.9,0.6-9.7,4.1-9.7,4.1c0.4-0.6,1.1-24.3,1.5-29.8c0.2-1.9,0.7-5.2-0.6-6.8
		c-1.3-1.5-3.6-2.3-4.9-3.9c-4-4.7-1.7-11.8-3.9-17.2c-2.4-5.9-8.7-7.3-14.7-8.3c-5.7-0.9-11.4-1.9-17.1-2.8
		c-9.5-1.5-18.7-6.7-25.2-13.8c-6.5-7.1-11.3-14.5-13.1-23.9c-0.9-4.6-0.1-11.4,2.4-15.4c6.6-10.4,18.7-3.9,27.5-8.6
		c5.3-2.8,7.6-10.2,13.5-11.2C829.9,224.1,833.5,226.4,836.2,228.9z"/>
	<path class="st50" d="M918.3,424.5c7.8,5.3,14,12.9,17.5,21.5c6.6,16,4.1,34.6-2.9,50.4c-7,15.8-18.2,29.3-29.4,42.5
		c-5.8,6.9-11.8,13.8-19,19.3s-15.8,9.5-24.8,9.7c-9.7,0.2-33.5-3.9-69.3-58.6c-11-16.7-20.3-40.1-21.8-60.1
		c5.7,2.7,12.4,2.8,18.5,1.3c5.5-1.4,10.4-4.2,15.1-7.3c4.5-3,9.6-5,14.2-8.1c9.9,6.9,18.6,15.7,25.4,25.7c1.1,1.6,2.1,3.2,3.5,4.5
		c2.1,2,4.8,3.1,7.5,4.3c0.1-1.5,1.3-2.9,2.8-3.2c1.5-0.3,3.1,0.7,3.7,2.1c5-13.7,14.5-26.5,23.7-37.7c2.5-3,5.1-6,8.5-8.1
		C899.6,417.7,910.6,419.4,918.3,424.5z"/>
	<path class="st6" d="M935,445c8.6,15.4,4.7,36.2-2.1,51.5c-7,15.8-18.2,29.3-29.4,42.5c-5.8,6.9-11.8,13.8-19,19.3
		s-15.8,9.5-24.8,9.7c-9.7,0.2-33.5-3.9-69.3-58.6c-11-16.7-20.3-40.1-21.8-60.1c5.6,2.6,12.4,1.6,18.5,2.1
		c-5.4,1.3-10.9,2.2-16.4,2.5c1.8,15.9,8,31.2,16.5,44.8c8.5,13.6,19.1,25.8,30.3,37.3c7,7.2,14.4,14.3,23.3,19
		c8.9,4.7,19.6,6.9,29.1,3.8c8.2-2.6,14.8-8.7,20.8-14.9c12.5-13,23.7-27.4,33.3-42.7c2.9-4.7,5.7-9.4,7.7-14.6
		C936.7,473.4,935.9,459,935,445z"/>
	<path class="st72" d="M918.3,424.5c10.3,7,14.7,16,19.1,27.1c-4.4-8.8-14.7-16-23.9-12.4c-5.4,2.1-8.9,7.3-11.7,12.3
		c-8.7,15.8-13.8,33.5-14.8,51.5c-3.1-2.8-7.7-3.8-11.7-2.4c-3.9,1.4-7,5-7.7,9.1c-5.5-8.6-19.3-10.2-26.6-3
		c-3.5,3.4-6.1,8.6-11,8.8c-4,0.2-7.3-3.4-8.3-7.3s-0.3-7.9,0.1-11.9c1.2-12.2-0.8-24.7-5.7-35.9c-2.9-6.8-7.2-13.4-13.6-16.9
		c1.1-1.4,12.8-9,13.7-8.4c9.9,6.9,18.6,15.7,25.4,25.7c1.1,1.6,2.1,3.2,3.5,4.5c2.1,2,4.8,3.1,7.5,4.3c0.1-1.5,1.3-2.9,2.8-3.2
		c1.5-0.3,3.1,0.7,3.7,2.1c5-13.7,14.5-26.5,23.7-37.7c2.5-3,5.1-6,8.5-8.1C899.6,417.7,910.6,419.4,918.3,424.5z"/>
	<path class="st76" d="M796.7,408.9c-0.1,2.5-0.4,5.1-1.5,7.4c-1,1.9-2.5,3.5-4.1,5c-3.3,3.1-6.8,6-10.5,8.6c-2.4,1.7-5,3.4-7.9,4.1
		c-6.3,1.5-13.5-2.1-15.9-8.1c0.5,3.6,2.7,6.8,4.6,9.9c3.2,5.3,5.7,11.1,7.3,17.1c0.2,0.8,0.4,1.6,0.9,2.2c0.3,0.5,0.8,0.9,1.3,1.3
		c3.1,2.3,7.2,2.6,11,2.4c4.9-0.3,9.9-1.1,14.4-3c4.6-1.9,8.7-4.9,11.6-8.9c2.2-3.1,3.8-6.8,7-8.8c0.9-0.6,2.1-0.8,3-1.4
		c-1.8-2.2-4.3-3.9-6.2-6c-2-2.1-3.9-4.4-5.7-6.7C802.2,419.3,799.1,414.2,796.7,408.9z"/>
	<path class="st6" d="M795.3,411.6c-0.6,1.8-9.3,11.7-12.9,14.7c-3.7,3.1-7.8,5.9-12.6,6.4c-4.8,0.5-10.2-2-11.4-6.6
		c-0.2-0.9-0.2-2.1,0.6-2.4c-1.4-0.2-2.6,1.3-2.5,2.7c0.1,1.4,1.4,4.7,2.5,5.6c5.6,5.1,14.1,3.9,20.9,0.5
		c6.5-3.2,16.9-16.6,17.6-18.7c0.7-2.1,0.5-4.5-0.5-6.4c-0.9-1.8-3.3-3.3-4.9-2C795.1,406.4,796.5,408.1,795.3,411.6z"/>
	<path class="st315" d="M853.9,338.5c3.3-12.1,9-11.3,13.2-11.2c1.5,0,3.1,0.3,4.4,1.2c2.9,2,3.3,6.1,2.8,9.5
		c-0.5,3.4-1.7,6.7-3.8,9.4c-2.1,2.7-5.3,4.6-8.7,4.9c-3.4,0.3-7-1.3-8.8-4.2"/>
	<path class="st322" d="M911.4,292.9c1.3-0.5,2.8-0.1,4.2,0.5c5.2,2.3,9,7.5,9.8,13.1c0.2,1.4,0.6,3.2,2,3.4c1.4,0.1,2.1-1.6,2.2-3
		c0.3-5.1-2-10.3-5.9-13.7c-3.9-3.4-9.2-4.9-14.4-4.5"/>
	<path class="st322" d="M795,288.3c-6.2-4.4-12.4-8.9-17.4-14.7s-8.5-13.1-8.4-20.7c0-0.6,0-1.2,0.4-1.7c0.8-1.2,2.9-0.8,3.7,0.4
		s0.9,2.8,1,4.2c0.9,8.7,7.5,15.7,13.7,21.9c0.9,0.9,2.1,1.9,3.3,1.4"/>
	<path class="st320" d="M749.4,337c-0.9-0.2-1.7-0.5-2.6-0.7c-3.1-0.8-6.2-1.6-9.3-2.1c-2.6-0.4-4-0.4-6.5,0.4
		c-3.9,1.3-8,3.3-12.1,3.7c-2.9,0.3-6-0.4-8-2.7c3.2,0.6,5.5-0.3,8.3-1.7c6-3,12.1-6,18.6-6.9c1.9-0.3,3.9-0.4,5.8,0.1
		c1.2,0.3,2.4,0.9,3.5,1.5c6.5,3.5,12.5,7.6,17.5,13C759.7,339.9,754.6,338.4,749.4,337z"/>
	<path class="st315" d="M751.1,359.5c-2-2.3-2.9-5.4-3.1-8.4c-0.2-3,0.3-6.1,1-9.1c-2.6,0.6-5.3,0.8-7.9,0.7
		c-1.3-0.1-2.6-0.3-3.8-0.6c-1-0.2-2.2-1-3.2-0.3c-2.1,1.5-3.8,3.7-6.3,4.5c-3,0.9-3.5-0.4-6.3-1.8c-0.5-0.3-1.1-0.7-0.9-1.2
		c0.1-0.2,0.3-0.4,0.4-0.6c3-2.7,6-5.4,9-8.2c0.8-0.7,1.6-1.4,2.5-1.9c1-0.5,18,0.5,19.4,0.8c1.3,0.3,8.3,4.5,13.6,7.7"/>
</g>
<polygon class="st27" points="362.1,101.1 388.9,132.5 428.5,144.5 397,171.3 385.1,210.8 358.3,179.4 318.7,167.4 350.1,140.6 "/>
<polygon class="st27" points="590,801.9 603.4,817.6 623.2,823.6 607.5,837 601.5,856.8 588.1,841 568.3,835.1 584,821.7 "/>
<polygon class="st27" points="844.7,103.9 848.8,130.8 866.7,151.2 839.8,155.3 819.4,173.2 815.3,146.3 797.3,125.9 824.2,121.8 
	"/>
<circle class="st20" cx="331.5" cy="319.1" r="18.7"/>
<circle class="st20" cx="929.4" cy="67.9" r="12.9"/>
<circle class="st20" cx="214" cy="176.3" r="12.9"/>
<g>
	<g>
		<path class="st90" d="M338,1301.9c-2.9,0.1-4.9,3.4-4.4,6.2c0.6,2.8,3,5,5.8,5.9c2.7,0.9,5.7,0.9,8.5,0.9
			c6.3-0.1,12.5-0.1,18.8-0.2c23.5-0.3,47.5-0.6,69.6-8.5c3.2-1.1,6.6-2.7,7.9-5.8c1.7-3.8-0.9-8.5-4.5-10.5c-3.7-2-8.1-2-12.2-1.6"
			/>
		<path class="st18" d="M405.5,750.7c-3.3,4.6-9,6.8-14.5,7.6c-2.7-7.3-13.9-35.3,1.3-37.2C405,719.5,411.6,742.3,405.5,750.7z"/>
		<path class="st20" d="M286.8,442.4c-13.6,1.9-36.9,2.5-47.2,11.5c-14.9,13.2-22.6,35.6-30,53.5c-8.6,20.5-15.8,41.5-21.5,62.9
			c-1.4,5.3-2.7,10.9-1.1,16.1c1,3.3,3.1,6.1,5.5,8.6c9.9,10.8,23.9,17.2,38.3,20.3c14.3,3.2,29.1,3.4,43.8,3.6c1.3,0,2.7,0,3.5-1
			c0.9-1,0.7-2.5,0.5-3.9c-3.3-19.9-9.9-38.1-13.5-58.1c-5.7-31.7-8.1-64.5-1.9-96.1"/>
		<path class="st44" d="M297.5,444.6c-13.6,1.9-36.9,2.5-47.2,11.5c-7.1,6.3-11.3,15-15.4,23.6c-8.6,18-15.2,37.1-21.8,55.9
			c-5.4,15.3-20.3,42.8-11.5,58.5c3.9,7,10.9,11.9,18.1,15.5c15.1,7.6,32.5,10.6,49.3,8.7c1.5-0.2,3.1-0.4,4.3-1.4
			c1-0.8,1.6-2,2.1-3.2c9.8-23.4,1.6-47.5-1.9-71.2c-4-26.4-4.5-54,0.7-80.3"/>
		
			<ellipse transform="matrix(8.651260e-02 -0.9963 0.9963 8.651260e-02 10.367 734.9421)" class="st324" cx="405.9" cy="361.8" rx="21.2" ry="18.9"/>
		<path class="st165" d="M320.8,370.2c-1,23.8-9.2,47.2-23.1,66.6c-2.1,3-4.5,6.4-3.7,9.9c0.3,1.4,1.1,2.6,1.9,3.7
			c7.6,11.2,18.8,20.5,32,23.5c13.2,3,28.4-1.2,36.4-12.1c-4.9-5.3-6.2-12.9-6.2-20.1c0-12.3,3-24.5,8.8-35.4"/>
		<path class="st166" d="M305.8,468.1c-3.7,0-14.1-23.1-8.1-31.4c13.9-19.3,22.1-42.8,23.1-66.6c0.1-2.1,0.3-2,2-3.3
			c1.7-1.2,3.8-1.6,5.9-1.9c3-0.5,5.9-1,8.9-1.4c4.3-0.7,9.7-1,12.1,2.7c2,3.2,0.4,7.4-1.2,10.9
			C334.1,407.3,329.4,439.1,305.8,468.1"/>
		<path class="st165" d="M318.5,352.4c0.9,9.4,1.7,19.1,6.7,27.3c5,8.1,11.9,14.8,18.6,21.3c4.5,4.4,9.1,8.8,14.3,12.2
			c6.9,4.5,16.9,8.6,23.9,3.2c4.8-3.7,7.5-10.9,10-16.4c4.8-10.9,9-23.7,9.4-36c0.2-6.2-0.3-12.1,0.8-18.3
			c1.5-8.9,2.7-16.6-0.4-25.5c-2-5.6-4.7-11.3-9.4-14.8c-4.6-3.5-10.5-4.3-16-4c-13.4,0.7-26.1,7.6-34.2,18.6"/>
		<path class="st167" d="M382,416.4c4.8-3.7,7.5-10.9,10-16.4c4.8-10.9,9-23.7,9.4-36c0.2-6.2-0.3-12.1,0.8-18.3
			c1.5-8.9,2.7-16.6-0.4-25.5c-2-5.6-4.7-11.3-9.4-14.8c-10.2-7.6-26.1-5.5-36.5-1.4c7.5,1.4,15.3,2.9,21.4,7.9
			c6.4,5.3,9.9,13.7,11.3,22s1.2,16.7,1.7,25.1c0.4,7.2,1.4,14.3,1.2,21.5c-0.4,12.1-4.4,23.8-11.4,33.1c-1.7,2.3-3.8,4.5-6.5,5.1
			C376.7,418,379.2,418.6,382,416.4z"/>
		<path class="st325" d="M303.6,286.7c20.8-20.6,55.6-22.8,83.5-14.8c8.4,2.4,23.6,12.2,26.9,30.2c3.3,18-1.6,23.6-9.4,28.2
			c-4.8,2.9-8.4,4.7-12.4,8.8c-3.4,3.5-5.6,10.9-7.9,15.3c-1,2.1-2,4.3-3.4,6.1c-1.4,1.8-3.5,3.2-5.8,3.1c-4.7-0.1-3.9-5.7-7.7-7.1
			c-2.4-0.8-4.6,1.2-6,3.2c-2.9,4.3-4.6,9.5-4.8,14.9c-0.1,5,1,9.9,1.4,14.9c0.4,5,0.1,10.3-2.6,14.2c-2.3,3.4-6.2,5.3-10,6.5
			c-7.5,2.3-15.7,2.4-23.4,0.1c-4.3-1.3-36.2-21.5-40.6-25.7c-11.7-11.5-19.1-27.9-20-44.4c-0.9-16.5,4.3-34.5,16.1-44.8
			C283.2,290.7,294.4,287.6,303.6,286.7"/>
		<path class="st325" d="M413.6,327.4c6.1-4.6,9.9-12.8,8-22.9c-2-10.4-11.2-18.1-20.7-22.1c-3-1.3-6.6-2.9-7.3-6.2
			c7,2.4,14.1,5,20.3,9.4c6.2,4.4,11.4,10.9,12.9,18.5c0.7,3.4,0.5,6.9-0.1,10.2c-1.4,6.7-5.3,12.4-9.9,16.9
			c-4.8,4.8-13.6,5.4-19.8,7.5c-6.6,2.2-13.2,5.3-17.7,10.8c-0.8,1-2.3,2-3.1,0.9c-0.3-0.5-0.2-1.1-0.1-1.7
			c1.7-6.7,8.4-10.3,14.5-12.7C397.9,333.3,407.1,332.3,413.6,327.4z"/>
		<path class="st325" d="M305.6,286.6c-7.2-2.3-14.8-1.1-22,0.7c-7.2,1.7-14.4,3.9-20.6,8c-0.6,0.4-1.3,0.9-1.6,1.7
			c-0.3,0.8,0.2,1.8,0.9,1.9c0.4,0.1,0.8-0.2,1.2-0.4c9.7-6.5,21.7-9.3,33.4-7.8"/>
		<path class="st326" d="M270.5,336.7c-0.6,14.4,5.2,29.2,15.4,39.5c4.2,4.3,9.1,7.7,14,11.1c3.9,2.7,7.8,5.5,11.7,8.2
			c3.3,2.3,6.6,4.6,10.2,6.2c3.1,1.3,6.3,2,9.6,2.1c2.5,0.1,5.1-0.2,7.3-1.6c3.1-1.9,4.7-5.6,5.8-9.2c2.3-7.2,3.6-14.8,6.3-21.8
			c2.8-7,7.5-13.5,14.3-15.9c1.7-0.6,3.6-0.9,5.2-1.8c4-2.2,5.6-7.3,8.2-11.1c3.5-5.1,9.1-8.1,13.7-12.1c4.7-3.9,8.8-9.8,7.6-16.2
			c-1.6-1.1-3.5,0.3-4.7,1.6c-10.3,10.1-22,18.6-34.8,25.1c-6.6,3.3-13.5,6.2-20.8,7.2s-15.1,0.1-21.8-3.8c-6.9-4-12.3-11.1-14.4-19
			c-2.1-7.9-1-16.6,3.1-23.3c0.8-1.3,1.5-3.2,0.3-4.1c-0.4-0.3-1-0.3-1.5-0.4C284.6,296.8,271.4,316.2,270.5,336.7z"/>
		<line class="st327" x1="365.4" y1="354.2" x2="427" y2="362.4"/>
		<path class="st165" d="M369.8,358.5c-1.8-2-3.8-4.1-6.4-4.7c-3.9-0.9-7.7,2-9,5.8c-1.3,3.8-0.5,8.2,1,12.1c0.4,1.2,1,2.3,1.7,3.3
			c1.7,2.4,4.7,3.8,7.5,3.4s5.2-2.4,6-5.2"/>
		<path class="st37" d="M347.8,719.2c2.5,0.1,5,0.3,7.6,0.4c-9.7,37.1-19.3,74.1-29,111.2c-8.9,34.1-20.6,103.1-23.2,114.2
			c-2.3,10-125.5,221.3-137.6,225.7s-34-10.7-32.4-16.3c10.3-36,72.5-177.5,80.2-191.1c3.7-6.5,7.4-13.1,9.3-20.4
			c1.6-6.3,1.9-12.8,2.1-19.3c1.9-44.9,0.7-61.2,8.8-105.4c0.6-3.4,1.3-7,0.6-10.4c-0.6-2.8-2.1-5.3-3.4-7.9
			c-15.8-29.8-12.8-68.9,7.2-95.8c11.8-15.9,33.5-17.4,53-20.5c6-1,12.1-1.8,18-0.7c14.6,2.7,24.3,16.4,32.3,29
			c5.4,8.4,10.8,19.3,5.4,27.7"/>
		<path class="st109" d="M133.2,1154.4c10.3-36,72.5-177.5,80.2-191.1c3.7-6.5,7.4-13.1,9.3-20.4c1.6-6.3,1.9-12.8,2.1-19.3
			c1.9-44.9,0.7-61.2,8.8-105.4c0.6-3.4,1.3-7,0.6-10.4c-0.6-2.8-2.1-5.3-3.4-7.9c-12.6-23.8-13.3-53.4-2.9-78.1
			c10.6-25.1,39.7-36.9,66.1-37.8c-44.5,56.8-48.8,136.2-43.6,205.5c1.5,19.1,3.9,39.3-4.2,56.6c-8.8,18.9-20,35.9-31.7,53.2
			c-33,49.1-58.7,103.1-76,159.7C140.4,1152.7,131.7,1159.6,133.2,1154.4z"/>
		<path class="st37" d="M288.4,706c-21.3,30.1-22.7,73.6-3.4,105c3.6,5.9,7.9,11.5,11.5,17.4c16.8,28.2,45.6,80.8,46.3,103.6
			c2.6,86.6-15.2,202.8-0.7,288.2c0.5,2.7,1.1,5.6,3.3,7.1c1.9,1.2,4.3,1,6.5,0.8c7.2-0.9,14.4-1.7,21.6-2.6
			c10.5-47.6,15.7-128.7,22.7-176.6c6.8-46.1,15.2-78.9,20.4-120.6c7-56.5-6.9-147-23.9-219.2"/>
		<path class="st328" d="M392.7,709.1c1.1,2,1.9,4.1,2.5,6.3c5.8,23.4,9.4,48.3,13.3,72.2c7.4,45.8,14,94.2,8.2,140.6
			c-5.2,41.7-13.7,74.5-20.4,120.6c-5.1,35-7.9,70.3-12,105.5c-2,17.7-4.2,35.5-7.3,53.1c-1.5,8.5-0.7,15.7-8.3,18.5
			c-6.3,2.3-11.8-0.4-18.2,3.7c-15.3-96.4,37.7-186.7,38.1-282.3c0.1-16.6-1.4-33.3-3-49.8c-1.8-20.1-3.7-40.2-5.5-60.2
			c-2.1-23.1-4.3-46.3-7.8-69.2c-4.5-29.2-11.9-59.3-31.1-81.8C358.7,685.3,383.8,692.7,392.7,709.1z"/>
		<path class="st20" d="M345.4,457.1c4.6-0.9,9.8-2.1,12.3-6c10.8,7.3,19.1,21.6,31.5,25.4c5,1.6,10.2,6.1,14.1,9.8
			c6.3,5.9,10.2,4.1,9.8,12.7c-2,44.7-21.7,91.3-30,135.2c-3.7,19.5,16.6,51.4,24.3,74.6c5.9,17.7,0,38,0,38
			c3-8.3-19.4-19.7-28.1-18c-14.5,2.8-33.1,35.4-47.5,47.2c-12,9.8-27.8,14.2-43.4,14.2c-40.7,0.1-73.5-51.6-73.7-55.7
			c-0.2-4,24.3-50.1,36.2-71.8c5.2-9.4-7.5-57.6-14.7-92.1c-7.8-37.6-12.9-83,8.9-114.6c5.8-8.4,18.1-12.1,48.4-16
			c0,0-7.3,12.7,19.9,19.2C324.8,461.9,334.2,459.2,345.4,457.1z"/>
		<path class="st171" d="M377.6,492.9c4,12.2,0.7,42.5,8.5,52.7c9.7,12.7,13,25.2,9,40.6c-4.1,16-12.9,34.8-11.8,61.4
			c0,0-21.1-37.2-24.7-52.1C349.5,556.8,361.5,509.5,377.6,492.9z"/>
		<path class="st172" d="M292.6,495.6c0,0.1-0.1,0.2-0.1,0.3c-6.9,15.7-11.2,32.6-12.5,49.7c-0.8,10.8-0.5,21.6-0.1,32.4
			c0.5,13.6,1,27.3,3.4,40.8c2.6,14.4,7.4,28.4,9,43c1.9,16.8-4.7,29.8-13.4,44.3c-14.9,24.8-21.8,39.3-21.6,75.5
			c-5.7-6.2-20.4-16.2-28.7-26.1c-4-4.8-13.6-14.2-14-21c-0.2-4,24.3-50.1,36.2-71.8c5.2-9.4-7.5-57.6-14.7-92.1
			c-7.8-37.6-12.9-83,8.9-114.6c5.8-8.4,18.1-12.1,48.4-16c0,0-7.3,12.7,19.9,19.2C311,458.6,294.7,490.9,292.6,495.6z"/>
		<path class="st173" d="M295.9,452.7c2.7,3.3,5.8,6.3,9.6,8c3.1,1.4,6.5,1.9,9.9,2.1c6,0.4,12.1,0.1,18.1-0.9c11.6-2,23-6.7,34.6-5
			c0-4-2.5-7.4-5-10.6c-0.6-0.8-1.3-1.7-2.2-2.3c-1.8-1.2-4.2-0.9-6.4-0.7c-9.8,1.2-19.8,1.4-29.5-0.4c-9.7-1.8-19.1-5.8-26.5-12.4
			c-1.1-1-10.4,7.3-10.4,9.5C288.3,444.1,293.5,449.8,295.9,452.7z"/>
		<path class="st329" d="M337,1279.8c-2.9,6.8-5.7,16.1-2.9,22.9c3.9,9.3,15.6,8.4,25.7,7.7c17.9-1.2,35.8-2.5,53.7-3.8
			c7.3-0.5,14.7-1.1,21.5-3.7c5.3-2,10.8-6.4,9.9-12c-1.1-6.6-9.6-8.4-16.3-9c-16.1-1.4-32-5.3-47-11.3c-2.5-1-5.2-2.2-6.7-4.5
			c-1.3-2-1.4-4.6-1.5-7c-0.3-13.7,0.3-27.5,1.8-41.1c-4.4-1.2-11-1.3-18-1.2c-8.3,0.1-15.2,3.5-15.2,3.5
			C342.8,1236.9,343.7,1264.5,337,1279.8z"/>
		<path class="st329" d="M162.6,1159c0.9,0.8,1.8,1.6,2.6,2.4c1.1,1.2,4.6,4.6,5,6.2c0.9,3-0.7,6.1-2.1,8.9
			c-3,6.9-12.1,22-12.6,30.4c-0.5,9,0.4,18.4,3.3,27c6.4,19,17,37.7,25.2,56.1c1.1,2.5,2.2,5.1,2,7.8c-0.6,6-8,9.2-13.8,7.7
			c-5.8-1.5-10.2-6.1-14.3-10.5c-16.8-18.2-32.9-37-49.1-55.7c-2.7-3.1-5.4-6.2-6.8-10.1c-3.5-9.5,0.2-22.2,12-34.2
			c4.4-4.5,11.8-23.9,16.4-38.1c0.5-1.7,1.1-3.5,2.5-4.6c1.4-1.2,3.4-1.5,5.3-1.6C146.8,1150.3,155.8,1153.3,162.6,1159z"/>
		<path class="st90" d="M106.9,1241.5c16.6,20.2,34.1,39.7,52.2,58.5c3.4,3.6,7.3,7.3,12.2,8c3.2,0.4,7.1-1.3,7.3-4.5
			c0.1-1.8-1-3.5-2-5c-7-9.8-13.9-19.5-20.9-29.3c-8.1-11.4-16.2-22.7-24.3-34.1c-3.6-5.1-7.5-10.4-13-13.4
			c-4.6-2.4-13.3-3.4-16.7,1.7C97.9,1229.1,103.4,1237.3,106.9,1241.5z"/>
		<g>
			<polygon class="st185" points="474.4,500.2 367.4,579.7 490.7,630.5 597.6,551 			"/>
			<polygon class="st330" points="474.4,500.2 367.4,579.7 490.7,630.5 			"/>
			<polygon class="st331" points="381.3,690.6 488.2,611.1 611.4,661.9 			"/>
			<polygon class="st7" points="384.4,715.6 507.6,766.4 490.7,630.5 367.4,579.7 			"/>
			<polygon class="st332" points="614.6,686.8 507.6,766.4 490.7,630.5 597.6,551 			"/>
		</g>
		<path class="st165" d="M460.6,512.2c-2.6-4-5.8-8.5-10.5-8.9c-2.9-0.3-5.7,1.1-8.4,2.5c-3.1,1.6-24.5,12.7-22.4,16.7
			c1.4,2.5,13.9-0.9,17.7,1.8c2.5,1.8,4.1,4.6,5.6,7.4c0.4-0.1,4.6,8.5,5.1,9.3c1.6,2.9,3.1,5.7,5.1,8.2c1.1,1.3,2.3,2.5,3.7,3.4
			c1.5,0.8,3.2,1.2,4.8,0.8c0.3-0.1,0.6-0.2,0.8-0.5c0.2-0.4-2.9-9.3-4.3-13.3c1,1.6,1.9,3.3,2.9,4.9c2.7,4.1,6.1,2.1,6.4,1.9
			c0.6-0.5,0.4-1.5,0.2-2.3c-2.1-6.8-4.2-13.7-7.8-19.8c1.9,1.8,3,4.2,4.4,6.4s3.3,4.3,5.9,4.7c0.7,0.1,3.4-1.1,3.3-1.9
			c0-0.2-5.6-10.2-8.5-14.8C463.3,516.5,462,514.3,460.6,512.2z"/>
		<path class="st166" d="M456.4,515.4c-0.5-0.6-1-1.2-1.6-1.7c-0.9-0.8-2.1-1.4-3.3-1.3c1.6,0.3,2.6,1.9,3.4,3.4
			c2.1,4,4.4,7.9,6.8,11.7c1.9,3,4.1,7.2,8,7.8c0.8,0.1,3.3-0.8,3.1-1.8c-0.2-0.7-1.6-0.4-2.2-0.5c-0.8-0.2-1.5-0.6-2.2-1.1
			c-1.2-0.9-2-2.1-2.9-3.4c-2.8-4-5.6-7.9-8.4-11.9C456.9,516.1,456.7,515.8,456.4,515.4z"/>
		<path class="st166" d="M451.5,519.7c-0.1-0.1-0.2-0.2-0.3-0.3c-1.6-1.6-4-2-6.3-2.1c1.6,0.4,3.4,0.9,4.5,2.1
			c0.7,0.7,1,1.6,1.4,2.5c2.2,5.3,4.4,10.6,6.7,15.9c0.1,0.3,0.3,0.6,0.4,0.9c0.9,2.3,1.8,4.7,3.6,6.6c1.1,1.2,5.2,3,6,0.5
			c-1,0.3-2,0-2.8-0.7c-0.8-0.7-1.2-1.6-1.7-2.6c-3.3-6.8-6.6-13.6-9.9-20.3C452.6,521.4,452.2,520.5,451.5,519.7z"/>
		<path class="st166" d="M443.8,524.1c-1.2-1.7-2.5-3.3-3.9-4.8c-0.5-0.5-1.1-1.1-1.8-1.3c-0.5-0.1-1.1-0.1-1.6,0
			c-4.9,0.7-9.7,1.4-14.6,2.2c-0.9,0.1-1.8,0.3-2.4,1c-1.7,2,1.6,2.2,2.7,2.3c1.7,0.1,3.4,0,5.1-0.1c2.9-0.1,7.2-0.8,9.7,1
			c2.5,1.8,4.1,4.6,5.6,7.4c0.4-0.1,4.6,8.5,5.1,9.3c1.6,2.9,3.1,5.7,5.1,8.2c1.1,1.3,2.3,2.5,3.7,3.4c0.7,0.4,6.4,2,5.5,0
			c-0.7,0.5-1.6,0.4-2.4,0c-0.7-0.4-1.3-1.1-1.8-1.8c-3.1-4.2-5.8-8.8-7.8-13.6c-0.7-1.7-1.3-3.5-2-5.2
			C447,529.1,445.6,526.5,443.8,524.1z"/>
		<path class="st165" d="M490.7,590.5c9.6,3,54.5,17.1,61.2,18.6c5.2,1.1,12.9,2.5,17.8,0.5c0,0-0.5-9.4,2.2-14.5
			c1.8-3.6,11-15.8,12.2-18.1c1.4-2.6,2.8-5.1,4.2-7.7c0.2-0.4,0.4-0.7,0.8-0.9c0.9-0.4,1.8,0.8,2,1.8c0.8,4.1-1.2,8.1-2,12.1
			c-0.9,4.4-0.4,9,1.3,13.1c2.7-2.9,5.3-5.9,7.6-9.1c1.7-2.3,3.3-5,2.9-7.8c2.7,0.2,5.8,0.6,7.3,2.9c0.6,0.9,0.8,2,0.9,3.1
			c0.4,3.1,0.1,6.2-0.8,9.2c1.6-0.5,3.3,0.7,3.9,2.3s0.5,3.3,0.4,4.9c-0.1,1.7-0.1,3.4,0.8,4.8c0.3,0.6,0.8,1,1,1.6
			c0.4,1,0.2,2.1-0.2,3.1c-0.7,2.3-1.8,4.5-3.2,6.5c-0.4,0.6-0.9,1.2-1.1,1.9c-0.2,0.7-0.1,1.4-0.1,2.2c-0.1,2.9-2.1,5.4-4,7.6
			c-7.2,8-20.4,2-31,3.9c-6.5,1.1-25.3,5.1-27.8,5.6c-4,0.7-39,9.7-74.5,0.3"/>
		<path class="st166" d="M547.1,638.1c-5.2,0.9-10.4,2.1-15.7,2.8c-10.4,1.5-21,2-31.5,1.5c-6.3-0.3-12.7-1-18.9-2.2
			c-4.8-0.9-8.2-2.6-11.9-5.7c-1.5-1.3-2.2-2.5-2.8-4.5c-0.2-0.6-1.2-7.7-0.6-7.6c33.5,3.4,67.4,6.8,100.8,2.2
			c5.1-0.7,10.1-1.6,15.2-1.3c5.2,0.2,10.4,1.6,15.4,0.2c5-1.4,8.8-5.3,12.2-9.1c1.5-1.7,2.9-4.5,1.1-5.9c-1.6,1.8-3.5,3.4-5.5,4.7
			c4.4-3.7,5.6-10.7,2.5-15.6c-2.2,2.3-4.6,4.3-7.3,6c6.5-6.3,6.8-17.9,0.7-24.5c2.5-0.5,6,0.1,7.4,2.3c0.6,0.9,0.8,2,0.9,3.1
			c0.4,3.1,0.1,6.2-0.8,9.2c1.6-0.5,3.3,0.7,3.9,2.3s0.5,3.3,0.4,4.9c-0.1,1.7-0.1,3.4,0.8,4.8c0.3,0.6,0.8,1,1,1.6
			c0.4,1,0.2,2.1-0.2,3.1c-0.7,2.3-1.8,4.5-3.2,6.5c-0.4,0.6-0.9,1.2-1.1,1.9c-0.2,0.7-0.1,1.4-0.1,2.2c-0.1,2.9-2.1,5.4-4,7.6
			c-7.2,8-20.4,2-31,3.9C568.4,633.6,549.7,637.7,547.1,638.1z"/>
		<path class="st20" d="M365.5,534.9c7.7,23.5,17,46.9,32.4,66.2c4.3,5.4,8.7,16.9,14.2,21.1c21.3,16.8,49.9,19.9,76.9,22.4
			c2.5,0.2,5.1,0.4,7.4-0.6c1.6-0.8,3.2-8.6,4.4-9.9c5.8-6.9,10.2-15.1,12.7-23.7c0.6-1.9,1-3.9,0.5-5.8c-0.6-2-2.3-3.5-3.9-4.9
			c-4.4-3.7-9.2-6.6-14-9.7c-3.8-2.5-8.4-5-12.6-3.5c-1.2,0.4-2.3,1.2-3.5,1c-1-0.1-1.9-0.9-2.7-1.6c-16.8-16-24.4-36.8-34.8-56.7
			c-9.5-18.3-23-34.4-40.6-45.4c-3.9-2.5-8.2-4.7-12.8-5.1c-7.2-0.6-14.3,3.5-18.9,9.1C358.5,502.3,360,518.1,365.5,534.9z"/>
		<path class="st44" d="M365.5,534.9c2.2,7.6,5.2,15.1,8.2,22.6c6.2,15.5,13.8,30.5,24.3,43.6c4.3,5.4,8.4,16.1,13.8,20.4
			c21.3,16.8,49.5,21,76.5,23.4c2.5,0.2,6.3-6.3,8.5-7.4c2.2-1.1,3.6-3,5.1-4.9c0.8-1,4.1-6.7,5.3-6.8c-28.5,1.9-57.5-5.1-82-19.8
			c-4.5-2.7-8.8-5.6-12.8-9c-6.2-5.3-11.5-11.7-16.4-18.3c-15.4-21-27.1-44.7-34.3-69.7C361.5,518.1,363.1,526.6,365.5,534.9z"/>
		<path class="st174" d="M398,482.5c12.5,6.8,23,17.2,30,29.6c2.5,4.5,4.6,9.3,6.7,14.1c4.3,9.8,8.6,19.7,12.8,29.5
			c2.9,6.7,5.8,13.4,10,19.4c4.1,6,9.6,11.3,16.4,14c8.5,3.4,18.6,2.7,26,8.1c-5.4-4-6.5-14.3-16.2-10.7c-1.2,0.4-2.3,1.2-3.5,1
			c-1-0.1-1.9-0.9-2.7-1.6c-16.8-16-24.4-36.8-34.8-56.7c-5.1-9.8-11.3-19-18.8-27.2C416.9,494.5,408,485.2,398,482.5z"/>
		<path class="st175" d="M479.1,586.6c-0.2-0.2-0.4-0.4-0.7-0.6c1-1.6,8.5-2.8,15.4-0.1c3.8,1.5,7.8,3,11.3,5.2
			c6.9,4.3,12,10.5,14,18.4c3.9,15.2-1.1,28-11.7,37.6c-0.8,0.7-6.1,0.7-7.1,1c-0.9,0.3-1.9,0.2-2.9,0.1c-6.5-0.8-13.1-1.5-19.6-2.3
			c1.6-1.1,2.1-3.1,2.6-5c3.5-14.7,5.3-30,2.9-44.9C482.7,592.3,481.7,589,479.1,586.6z"/>
	</g>
</g>
<g>
	<g>
		<g>
			<g>
				<g>
					<path class="st333" d="M996.3,509.6c-6.5-0.4-19.1,0-22.2-5.7c-1.9-3.5-3-14.4-2.9-18.3c0.4-30.1,3.6-48.9,15.2-71
						c3.8-7.3,8.1-14.4,14-20.1s28.5-4.4,36.8-4.5c8.2-0.1,16,3.7,22.8,8.2c5.9,3.9,11.5,8.6,15,14.8c3.1,5.4,4.4,11.6,5.4,17.8
						c3.1,19.4,2.8,39.3-0.7,58.6c-1.5,8.2-3.7,16.5-8.2,23.6s-11.7,12.8-20,13.8c-5.1,11.5-6.6,24.7-4.2,37.1
						c-6.1-4.1-13.4-6.5-20.8-6.7c-14.8-0.5-29.8-0.4-40.4-12.4C986.1,544.5,993.6,521.4,996.3,509.6z"/>
				</g>
			</g>
		</g>
		<g>
			<g>
				<g>
					<path class="st334" d="M696.3,598.6c0.1,1.1,6.5,4.7,7.6,5.5c2.7,1.9,5.4,3.9,8.1,5.8c3.9,2.8,12.7,6.8,12.6,12.3
						c-0.1,5.6-6.2,4.9-9.9,3.4c-5-2-9.2-6-12.3-10.3C698.9,610.4,696.6,604.6,696.3,598.6z"/>
				</g>
			</g>
		</g>
		<g>
			<g>
				<g>
					<path class="st335" d="M873.6,771.7c-11.6,3.9-20.2,13.9-26.9,24.2c-2.8,4.3-7.1,6-5.5,10.9c3.2,9.8,11.1,11.7,23,14.6
						c6.4,1.6,174.1-28.7,179.2-32.4c14.3-10.5,37.6-7.8,37.3-18.3c-0.2-8.3-2.8-12.3-8.7-18.1c-6.2-6-15.3-7.7-23.9-8.7
						c-33.7-4-69.4-1.9-98.9,14.7"/>
				</g>
			</g>
		</g>
		<g>
			<g>
				<g>
					<path class="st333" d="M1102.1,1174.7c6,25.3,15.6,60.6,5,84.8c-4,9.3-9.9,17.8-17.7,24.3c-2.4,2-5,3.9-6.5,6.6
						c-1.5,2.8-1.3,6.7,1.3,8.5c1.8,1.2,4.3,1,6.5,0.5c10-2.2,18.7-8.2,26.4-14.9c5.1-4.4,9.9-9.1,14.4-14.2
						c4.2-4.7,9.4-3.5,10.7-9.6c1.5-7-2-20.5-3.6-27.5c-1.5-6.8-1.9-13.7-3-20.5c-1.2-7.5,1-55.5-0.4-63"/>
				</g>
			</g>
		</g>
		<g>
			<g>
				<g>
					<path class="st41" d="M956.3,838c-2.1,66.9,24,131.6,56.4,190.2c32.4,58.6,59.9,115.2,87.8,176c12.1,3.8,35.3-5.8,44.9-7.4
						c-0.3-7.9-0.7-15.9-1.2-23.8c-2.5-37.6-7.6-75.3-18.6-111.4c-5.7-18.7-33.1-64.4-35.4-70.7c-3.1-8.5-26.2-107.6-25.2-112.3
						c0.6-2.8,1.7-5.5,2.7-8.1c12.3-32.7,13.9-71.3-4.1-101.2c-3.6-6-8.1-11.7-14.1-15.5c-8-5-18.9-4.9-28-6.4
						c-10.8-1.7-21.5-5-32.1-0.4c-10.3,4.5-16.6,14.7-20.3,24.8c-4.4,11.8-9.2,24-10.3,36.7c-1.3,14.7-4.3,29-3,44"/>
				</g>
			</g>
		</g>
		<g class="st17">
			<g>
				<g>
					<path class="st41" d="M956.3,838c-2.1,66.9,24,131.6,56.3,190.1c19.4,35.1,37.7,70.7,55.2,106.7c8.9,18.3,17.6,36.7,26.1,55.2
						c4.6,10,5.1,14.9,16.6,14.9c9.8,0,19.3-2.1,27.8-7c-4.7-45.8-9.6-92.3-27.2-134.9c-11.5-27.8-28.2-53.1-39.6-80.9
						c-13.4-32.4-19.3-67.9-17.3-102.9c-1.8,2.2-3.7,4.4-5.5,6.6c16.4-18.4,18.8-45.1,19-69.8c0.1-13.9-0.4-28.2-6-40.9
						c-9.9-22.3-49.6-38.2-72.4-28.2c-10.3,4.5-16.6,14.7-20.3,24.8c-4.4,11.8-9.2,24-10.3,36.7c-1.3,14.7-4.3,29-3,44"/>
				</g>
			</g>
		</g>
		<g>
			<g>
				<g>
					<path class="st37" d="M1143.9,1276.5c2.6-2.4,5.4-4.8,6.8-8c0.9-2.1,2.2-5.6,2-7.9c-0.3-5.5-0.7-15.9-13.6-19.3
						c2.6,7.9-5.5,18.2-11,26.9c-7.2,11.3-15.7,22.5-27.8,28.2c-2.8,1.3-6,2.3-8.8,1.3c-5.1-1.8-3.5-5.9-1-8.8
						c-12.7,7.1-18.8,11.2-27.7,16.3c-8.2,4.7-3.5,15.9,2.6,17.7c5.6,1.7,24.8-1.7,28.5-2.3c4.1-0.7,8.4-1.5,11.7-4
						C1107.9,1314.8,1137.9,1281.9,1143.9,1276.5z"/>
				</g>
			</g>
		</g>
		<g>
			<g>
				<g>
					<path class="st37" d="M911.6,1294.7c-8.6,2.3-41,3.8-48.6,3c-5.4-0.6-9.7-1.9-12.7-6.4c-0.4-0.6-0.8-1.3-1.5-1.4
						c-0.4-0.1-0.7,0.1-1.1,0.2c-7.6,2.6-32.9,9.5-34.4,13.2c-1.2,3-0.2,6.4,1.7,9c4.7,6.4,13.7,7.5,21.6,7.9
						c24.8,1.2,49.6,0.6,74.3-1.3c5.3-0.4,10.6-0.9,15.9-0.1c2,0.3,4,0.7,5.9,0c1.9-0.7,3.1-2.5,4.1-4.3c2.8-4.9,4.8-10.4,5.3-16
						c0.4-3.9-2-17.2-5.9-19.8c-3.6-2.4-6.8,2.1-9.6,4C921.7,1286,917.5,1293.1,911.6,1294.7z"/>
				</g>
			</g>
		</g>
		<g>
			<g>
				<g>
					<path class="st37" d="M1143.9,1270.6c2.6-2.4,5.4-4.8,6.8-8c0.9-2.1,2.2-5.6,2-7.9c-0.3-5.5-0.7-15.9-13.6-19.3
						c2.6,7.9-5.5,18.2-11,26.9c-7.2,11.3-15.7,22.5-27.8,28.2c-2.8,1.3-6,2.3-8.8,1.3c-5.1-1.8-3.5-5.9-1-8.8
						c-12.7,7.1-18.8,11.2-27.7,16.3c-8.2,4.7-3.5,15.9,2.6,17.7c5.6,1.7,24.8-1.7,28.5-2.3c4.1-0.7,8.4-1.5,11.7-4
						C1107.9,1308.8,1137.9,1276,1143.9,1270.6z"/>
				</g>
			</g>
		</g>
		<g>
			<g>
				<g>
					<path class="st333" d="M911.6,1162c0.5,24.6-3,49.3-10.3,72.9c-5,16.2-6.1,30.9-20.7,39.6c-13.3,7.9-40,13.6-54.5,19
						c17.4,23.7,73.1,3.4,106.7-5.3c-0.9-11.6,0.4-23.3,1.5-34.9c2.3-23.8,3.8-47.8,4.4-71.7"/>
				</g>
			</g>
		</g>
		<g>
			<g>
				<g>
					<path class="st37" d="M911.6,1288.8c-8.6,2.3-41,3.8-48.6,3c-5.4-0.6-9.7-1.9-12.7-6.4c-0.4-0.6-0.8-1.3-1.5-1.4
						c-0.4-0.1-0.7,0.1-1.1,0.2c-7.6,2.6-32.9,9.5-34.4,13.2c-1.2,3-0.2,6.4,1.7,9c4.7,6.4,13.7,7.5,21.6,7.9
						c24.8,1.2,49.6,0.6,74.3-1.3c5.3-0.4,10.6-0.9,15.9-0.1c2,0.3,4,0.7,5.9,0c1.9-0.7,3.1-2.5,4.1-4.3c2.8-4.9,4.8-10.4,5.3-16
						c0.4-3.9-2-17.2-5.9-19.8c-3.6-2.4-6.8,2.1-9.6,4C921.7,1280.1,917.5,1287.2,911.6,1288.8z"/>
				</g>
			</g>
		</g>
		<g>
			<g>
				<g>
					<path class="st41" d="M899.5,1215.4c0.8-33.7-2.6-106-4.1-123.8c-4.7-54.4-28.7-118.7-34.4-173c-5.7-54.3-4.4-88.1,7.3-141.4
						c0.8-3.6,19.7-3.2,21.9-6.2c2.2-2.9,5.4-4.8,8.6-6.6c13.9-7.9,28.4-14.9,43.1-21.1c6.4-2.7,13.7-5.2,20.2-2.7
						c3.9,1.5,7,4.6,9.9,7.6c6.9,7.1,13.9,14.3,20.8,21.4c2.4,2.5,15.6-4.4,17.2-1.3c2.4,4.4,14,14,14,29.2
						c0,67.9-28.1,96.4-28.1,96.4c-5.6,17.2-11.4,34.7-15.6,53.4c-4.9,21.6-13.9,65.9-13.9,65.9c0.3,23.2,3.6,46.2,4.1,69.3
						c1,44-14.9,87.7-27.6,129.8C941.3,1218.2,898.9,1221.3,899.5,1215.4z"/>
				</g>
			</g>
		</g>
		<g class="st336">
			<g>
				<g>
					<path class="st337" d="M899.5,1215.4c0.8-33.7-2.6-106-4.1-123.8c-4.7-54.4-28.7-118.7-34.4-173c-5.7-54.3-4.4-88.1,7.3-141.4
						c0.8-3.6,19.7-3.2,21.9-6.2c2.2-2.9,5.4-4.8,8.6-6.6c13.9-7.9,28.4-14.9,43.1-21.1c6.4-2.7,13.7-5.2,20.2-2.7
						c3.9,1.5,7,4.6,9.9,7.6c6.9,7.1-72.9,83.5-72.9,83.5c-5.6,17.2-5.2,60-2.4,93.3c1.9,22.1,25.1,125.9,25.6,149.1
						c1,44,1.3,82.6-11.3,124.7C909.2,1204.5,898.9,1221.3,899.5,1215.4z"/>
				</g>
			</g>
		</g>
		<g>
			<g>
				<g>
					<path class="st333" d="M992.9,509.7c8.2-2.2,15.2-7.5,20.5-14.1c5.3-6.6,8.8-14.4,11.5-22.4c1.3-3.8,2.4-7.8,2.2-11.9
						c-0.2-4-1.8-8.2-5.1-10.6c-2.7-2-6.4-2.5-9.6-1.3c-3.2,1.1-9,7.3-9.9,10.6c1.3-15.3-1.3-22.2-3.2-28.9
						c-1-3.3-3.1-9.5-16.3-10.7c0,0,1-2.6,1.6-10.2c4.2-1.9,3.5,0,8.1,0c4.4,0,9-0.1,13.1,1.6c3.4,1.4,6.3,3.8,9,6.3
						c3.7,3.5,7.2,7.2,9.9,11.5c6.8,10.8,8,24.2,8.1,37c0.1,7.4-0.2,15-2.1,22.2c-2.1,7.8-6.1,15-10,22.1
						c-3.7,6.7-7.5,13.4-12.2,19.5c-3.2,4.2-13.9,14.2-18.6,6.2c-1.9-3.3,0.3-8.1,1-11.5C992,520.1,992.7,514.9,992.9,509.7z"/>
				</g>
			</g>
		</g>
		<g>
			<g>
				<g>
					<path class="st27" d="M1028.4,529.4c-12.6-4.7-56,0.9-67.8,7.3c-17.4,9.4-15.9,21.5-26.3,37.7c-12.4,19.4-23.4,39.6-34.4,59.8
						c-12.5,23-24.9,46-34,70.6c-8.6,23.5-24.7,50.2-26.7,75.2c-0.7,9-0.9,18.3,2,26.8c0,0,7.2-20.4,40.7,9.6
						c17.1,15.4,74.7,23.8,95.9,10.8c14.8-9.1,26.3-22.6,39.6-33.7s47.2-32.6,62-18.5c5.6-8.4,6.6-19.3,4.6-29.3
						c-1.9-9.9-6.5-19.2-11.2-28.2c-1.6-3.1-3.3-6.2-4.2-9.6c-1-3.6-6.5-9.9-6.4-13.7c0.3-33.5,7-66,3.6-99.3
						C1062.7,565.1,1058,540.5,1028.4,529.4z"/>
				</g>
			</g>
		</g>
		<g class="st2">
			<g>
				<g>
					<path class="st27" d="M1028.2,529.8c-4.6-3.2-9.4-5.8-14.8-7c-19.4-4.5-39,10.8-46.6,29.3c-7.5,18.5,14.5,19.1,15.6,39
						c2.9,52-18,126.2-39.2,173.8c-10.3,23.1-25.3,43.8-40.1,64.3c13.2,2.1,25.9,4,39.2,4.3c7,0.2,14.1,0,20.9-1.3
						c4.2-0.8,10.8-5.1,14.6-5.1c14.8-9.1,26.3-22.6,39.6-33.7s47.2-32.6,62-18.5c5.6-8.4,6.6-19.3,4.6-29.3
						c-1.9-9.9-6.5-19.2-11.2-28.2c-1.6-3.1-3.3-6.2-4.2-9.6c-1-3.6-6.5-9.9-6.4-13.7c0.4-34.1,6.9-67.6,4.2-101.7
						c-0.8-10.5-2.3-21.2-7.1-30.6c-5.2-10.1-13.8-18-22.5-25.2C1034.1,534.2,1031.2,531.9,1028.2,529.8z"/>
				</g>
			</g>
		</g>
		<g>
			<g>
				<g>
					<path class="st333" d="M741.1,643.9c-8.3-0.4-16.3-0.6-24.5-2.2c-2.3-0.4-6.3-5.2-6.7-5.7c0,0-2.4-1.3-2.9-1.6
						c-3.7-2.7-3.5-7-3.7-7.6c0,0-2.9-1.8-4.3-3c-4.1-3.6-6.7-12.6-8.4-17.7c-2.7-8.3-4.5-16.9-5.1-25.6c0-0.5-0.1-1.1,0.2-1.5
						c0.7-1.1,2.3-0.6,3.3,0.1c3.3,2.5,4.8,6.6,6.1,10.4c2.5,7.2,5,14.4,7.5,21.5c0.3,0.8,0.6,1.7,1.2,2.4c0.5,0.6,1.3,1,2,1.4
						c7.2,3.9,13.3,6,21.6,6c9.3-8.8-22.9-26.8-15.6-31.7c9.1,0.3,14,10.7,21.6,15.8c5.8,3.9,14.9,3.5,21.3,6.2
						c10.1,4.3,17.7,13.2,27.4,18.4c10.5,5.8,22,9.6,33.6,12.7c18.6,4.9,37.6,7.9,55.7,14.3c5.1,1.8,10.4,4.1,13.1,8.8
						c1.9,3.3,2.1,7.3,2,11.1c-0.1,8.7-1.3,17.3-3.6,25.7c-17.5-1.3-34.8-6.2-50.4-14.3c-18.4-9.6-34.3-23.4-51-35.6
						c-5.7-4.2-12.3-8.8-19.5-10.2C755.1,640.7,748.3,644.3,741.1,643.9z"/>
				</g>
			</g>
		</g>
		<g>
			<g>
				<g>
					<path class="st338" d="M741.1,643.9c-8.3-0.4-16.3-0.6-24.5-2.2c-2.3-0.4-6.3-5.2-6.7-5.7c0,0-2.4-1.3-2.9-1.6
						c-3.7-2.7-3.5-7-3.7-7.6c0,0-2.9-1.8-4.3-3c-4.1-3.6-6.7-12.6-8.4-17.7c-2.7-8.2-4.9-17-4.6-25.7c3.3,10.4,6.5,20.9,9.8,31.3
						c1.4,4.4,3,9.1,6.7,11.8c1.4,1,3,1.7,4.1,3.1c0.8,1,1.2,2.2,1.8,3.2c0.8,1.2,2.1,2.1,3.3,2.9c5.3,3.4,11.5,5.5,17.7,6
						c15.5,1.2,31.7-7,46.1-1.3c8.3,3.3,14.1,10.5,20.4,16.7c22.9,22.7,57.2,35,88.5,27.1c1.6-0.4-0.9,14.9-1.4,16.2
						c-1.3,3.2-1.6,4.2-4.8,4.5c-2.9,0.2-6.5-0.9-9.4-1.4c-12.7-2.3-25-6.6-36.4-12.5c-18.4-9.6-34.3-23.4-51-35.6
						c-5.7-4.2-12.3-8.8-19.5-10.2C755.1,640.7,748.3,644.3,741.1,643.9z"/>
				</g>
			</g>
		</g>
		<g>
			<g>
				<g>
					<path class="st27" d="M931.9,570.3c-6.2,13.9-9.4,28.9-14.3,43.3c-5.2,15.4-13.8,26.3-22.9,39.6c-2.1,3.1-4.4,6.3-7.8,8
						c-10.6,5.1-24.5-8.2-34.2-1.4c-2.9,2-13,24.6-16.5,32.6c-0.5,1.2-1.1,2.6-0.8,3.9c0.3,1.3,1.4,2.3,2.4,3.2
						c6.8,5.8,52.6,38.2,68.1,33.6c35.1-10.4,64.5-86.4,71.9-105.4c8.3-21.3,13.1-89.1-4.7-94.1C954.7,528.5,934,565.2,931.9,570.3z
						"/>
				</g>
			</g>
		</g>
		<g>
			<g>
				<g>
					<path class="st339" d="M962.7,661.5c-7.6,17.5-20,32.8-35.5,43.8c-4.4,3.1-9.2,6-14.5,6.9c-5.9,1.1-12.1-0.3-17.6-2.8
						c-5.5-2.5-10.4-6-15.4-9.4c-11.7-8.1-24.3-16.1-38.4-17.5c-2.3,2.9-4.7,5.9-5.4,9.5c-1.5,7.5,6.9,11.6,12.1,15.2
						c6.3,4.4,12.8,8.6,19.4,12.5c9.6,5.6,26.4,17,38.3,13.5c14.1-4.2,24.7-16.8,33-28.3c5.1-7.1,9.6-14.5,13.9-22.1
						c2.1-3.8,3.8-7.8,6.1-11.5C960.7,668,961.2,665,962.7,661.5z"/>
				</g>
			</g>
		</g>
		<g>
			<g>
				<g>
					<path class="st340" d="M931.9,570.3c-6.2,13.9-9.4,28.9-14.3,43.3c-5.2,15.4-13.8,26.3-22.9,39.6c-2.1,3.1-4.4,6.3-7.8,8
						c-7.2,3.5-15.3-1.2-22.4-2.7c-9.2-2-13.8,2.8-16.4,11.6c1.1-4.1,5.9-6.1,10.1-5.9c4.2,0.3,8.1,2.2,12,3.7
						c4.9,1.9,10.1,3,15.3,3.4c2.9,0.2,5.8,0.2,8.5-0.6c3.6-1.1,6.6-3.4,9.3-6c6.3-6.3,10.6-14.3,14.4-22.3
						c10.3-21.8,17.5-44.9,26.2-67.4c4.1-10.5,8.6-21,15.5-29.9c2.8-3.5,6.2-6.9,10.5-7.9s9.7,1.4,10.5,5.8c-4-7.2-7.6-11.8-16.1-9
						c-5.8,2-10.7,6.4-14.9,10.8C942.4,552.2,936,561.1,931.9,570.3z"/>
				</g>
			</g>
		</g>
		<g>
			<g>
				<g>
					<path class="st37" d="M1002.7,361.7c-8.2-2.3-16.8-3.2-25.3-2.2c-5.5,0.7-11.2,2.3-15.3,6.2c-2.5,2.4-4.2,5.4-5.6,8.6
						c-3.5,8.3-4.6,17.8-1.5,26.3c3.1,8.4,11,15.3,19.9,15.9c9.4,0.6,18.2-5.3,23.4,5.5c3,6.2,6.4,14,6.7,20.9
						c0.4,8.6-2.2,15.2-2.5,17.2c-0.1,1,1.2,1.7,2.2,2c2.3,0.5,3.7-2.4,5.9-3.3c2.1-0.9,4.6,0.5,5.7,2.5c1.2,2,1.3,4.3,1.4,6.6
						c0.6,12.2-1.8,25.9-8.8,36.4c-4.7,8.5-11,16.3-13,25.8c-1.1,5.5-0.7,11.3,0.2,16.9c1.2,7.1,3.2,14.1,6.6,20.4
						c3.8,7.1,9.3,13.2,13.9,19.8c5.6,8,8.5,15.3,10.5,24.6c2.1,9.7,3.2,19.6,6.8,28.9c6.1,15.9,19.3,28.9,35.3,34.7
						c16,5.8,34.5,4.3,49.4-4c18.9-10.5,30.6-30.3,39.6-50c10.8-23.5,19.3-48.6,20.6-74.5s-5-52.8-21.1-73.1
						c-7.5-9.5-17-17.3-27.2-23.8c-7.9-5-16.4-9.4-23.4-15.7c-13.5-12.3-22.5-44.4-33.6-54.7c-12-11.2-31-8.9-39.9-7
						c-1.8,0.4-3.6,0.9-5.4,0.6c-1.9-0.3-3.7-1.4-5.3-2.4C1016.8,366.8,1009.9,363.7,1002.7,361.7z"/>
				</g>
			</g>
		</g>
		<g class="st2">
			<g>
				<g>
					<path class="st37" d="M983.3,386.2c-0.6-0.7-1.2-1.4-1.7-2.2c-2.8-4.1-4.9-10-9.8-10.5c-1.6-0.2-3.3,0.3-4.6,1.2
						c-5.7,3.5-6.6,11.6-4.8,18.1c1.7,6.1,5.6,12,11.5,14.4c4.2,1.7,8.8,1.4,13.2,2.4c15.7,3.8,21.7,20.7,25.8,34.4
						c4.3,14.3,8.9,28.9,9,44c0.2,15.5-10.1,28.1-15.3,42.5c-2,5.6-3.8,11.3-3.7,17.2c0,14.5,10.4,26.8,21,36.8c2.1,2,4.2,4,5.6,6.5
						c1,1.9,1.6,3.9,2.1,6c2.7,10.8,4.6,21.7,8.2,32.2c3.6,10.5,9.1,20.6,17.5,27.7c8.5,7.1,20.3,10.8,31,7.7
						c8.4-2.5,15.1-9,19.8-16.4c6.4-10.2,9.3-22.5,8.2-34.4c3.6,1.2,7.4-1.1,10.2-3.6c11.7-10.4,18.1-25.7,21-41.1
						c1.8-9.9,2.3-20.3-0.2-30.1c-3.6-13.8-13.2-19.4-22-29.2c-3.3-26.6-23-50.5-48.6-58.9c-5.3-1.7-10.9-2.9-15.8-5.6
						c-15-8.5-21.2-27-27.4-41.8c-1.7-4.2-3.7-8.6-7.4-11.1c-8.4-5.7-19.7,1-29.8,0.2C991.2,392.1,986.5,389.8,983.3,386.2z"/>
				</g>
			</g>
		</g>
		<g>
			<g>
				<g>
					<path class="st333" d="M1008.7,461.2c0.2-1.2,0.9-1.9,2-2.7c1.4-1,4.3-1.7,6-1.4c2.4,0.4,4.5,2.7,5.1,5.2
						c1,4.4,0.2,8.1-1.1,12.5c-0.8,2.6-2.8,5.5-4.6,7.5c-1.8,2-4.3,4.3-7,3.8c-0.2,0-0.4-0.1-0.6-0.2c-0.4-0.3-0.4-0.9-0.6-1.4"/>
				</g>
			</g>
		</g>
		<g>
			<g>
				<g>
					<path class="st37" d="M985.6,536.4c-5.5,18.1-3.4,37.6,2.9,55.5c0.5,1.5,2.8,1,2.5-0.6c-0.7-5.1-2-10.1-2.9-15.1
						c-3.9-22.7,1.4-47,14.6-65.9c3.4-4.9,11.1-12.2,14.2-17.3c1.7-2.8,3.7-13.6,0.8-8.4C1016.8,486.2,994,508.8,985.6,536.4z"/>
				</g>
			</g>
		</g>
		<path class="st29" d="M876.8,661.8c-4.6-2.3-10.4-0.9-14.3,2.3c-4,3.2-6.4,8-8.2,12.8c-2.4,6.6-3.8,13.6-4.1,20.6
			c-0.2,6,1.1,13.2,6.6,15.6c-4.8,2.3-10.3-1.2-14.5-4.5c-2.8-2.2-5.7-4.4-8.5-6.7c-3-2.4-6.2-4.9-7.9-8.4c-3.1-6.3-0.5-13.8,2-20.4
			c3-7.5,6.3-15.5,13.1-19.9c6-3.9,13.9-4.1,20.7-2c6.9,2.1,12.9,6.2,18.5,10.7c-3.7-0.7-7.4-1.5-11.1-2.2"/>
	</g>
</g>
</svg>
